<?xml version="1.0" standalone="no"?>
<!DOCTYPE svg PUBLIC "-//W3C//DTD SVG 1.1//EN" "http://www.w3.org/Graphics/SVG/1.1/DTD/svg11.dtd" >
<svg xmlns="http://www.w3.org/2000/svg">
<metadata>Generated by IcoMoon</metadata>
<defs>
<font id="fonticon" horiz-adv-x="1024">
<font-face units-per-em="1024" ascent="960" descent="-64" />
<missing-glyph horiz-adv-x="1024" />
<glyph unicode="&#x20;" horiz-adv-x="512" d="" />
<glyph unicode="&#xe600;" glyph-name="search" d="M81.987-10.625c90.186 103.237 180.539 206.306 270.892 309.375 0.837 1.004 1.673 2.175 2.51 3.179-0.335 0.502-0.335 0.837-0.669 1.004-0.669 0.669-1.171 1.171-1.841 1.673-46.348 40.993-79.31 91.022-99.89 149.417-19.075 54.044-26.604 109.595-20.078 166.651 5.689 51.033 22.756 98.384 48.021 142.892 46.348 81.987 113.945 138.039 203.461 167.655 54.379 17.903 109.929 24.931 166.986 16.899 78.139-10.876 146.071-43.671 204.465-96.376 51.033-46.18 84.329-103.571 103.237-169.495 14.892-51.869 19.744-104.742 11.545-158.285-10.039-65.924-37.48-124.486-78.306-176.69-68.936-88.010-161.799-131.179-271.728-138.876-77.637-5.522-148.748 16.397-214.337 57.391-5.856 3.681-11.712 7.529-17.736 11.378-1.171-1.339-2.175-2.342-3.179-3.514-79.644-90.855-159.122-181.71-238.766-272.397-12.047-13.72-23.927-27.441-35.974-40.993-6.693-7.529-16.23-9.203-24.763-4.852-8.366 4.183-13.051 13.386-10.541 22.421 1.171 4.016 3.681 8.199 6.693 11.545zM399.059 319.833c45.176-33.297 94.703-57.391 150.588-66.928 37.982-6.525 75.796-5.522 113.61 1.841 56.554 11.21 107.754 33.631 152.094 70.944 34.635 29.114 60.737 64.753 81.652 104.575 26.102 49.861 39.99 102.902 36.308 159.289-6.86 102.902-46.013 189.908-130.342 252.988-46.18 34.468-98.050 56.722-155.273 64.92-14.055 2.008-28.277 2.51-41.161 3.681-93.365-3.848-175.184-32.46-239.937-100.392-50.363-52.873-81.82-115.953-92.193-188.57-13.888-96.878 21.752-226.217 124.654-302.348z" />
<glyph unicode="&#xe601;" glyph-name="twitter" d="M1024 765.582c-37.676-16.708-78.164-28.002-120.66-33.080 43.372 26.001 76.686 67.17 92.372 116.23-40.596-24.078-85.556-41.56-133.41-50.98-38.321 40.83-92.922 66.34-153.346 66.34-116.022 0-210.088-94.058-210.088-210.078 0-16.466 1.858-32.5 5.44-47.878-174.6 8.764-329.402 92.401-433.018 219.506-18.084-31.028-28.446-67.116-28.446-105.618 0-72.888 37.088-137.192 93.46-174.866-34.438 1.092-66.831 10.542-95.154 26.278-0.020-0.876-0.020-1.756-0.020-2.642 0-101.788 72.418-186.696 168.522-206.001-17.626-4.8-36.188-7.372-55.348-7.372-13.538 0-26.698 1.32-39.528 3.772 26.735-83.46 104.32-144.206 196.252-145.896-71.9-56.35-162.486-89.934-260.916-89.934-16.958 0-33.679 0.994-50.116 2.94 92.972-59.61 203.402-94.394 322.042-94.394 386.422 0 597.736 320.124 597.736 597.743 0 9.108-0.206 18.168-0.61 27.18 41.056 29.62 76.672 66.62 104.836 108.748z" />
<glyph unicode="&#xe602;" glyph-name="facebook" d="M572.76 967.463c-110.357 0-199.819-89.462-199.819-199.819v-119.893h-159.855v-159.855h159.855v-559.496h159.855v559.496h179.837l39.964 159.855h-219.802v119.893c0 22.069 17.891 39.964 39.964 39.964h199.819v159.855h-199.819z" />
<glyph unicode="&#xe603;" glyph-name="help" d="M508.697 946.787c-270.865 0-495.484-224.619-495.484-495.484s224.619-495.484 495.484-495.484c270.865 0 495.484 224.619 495.484 495.484s-218.013 495.484-495.484 495.484zM561.548 154.013h-132.129v105.703h132.129v-105.703zM680.465 464.516c-19.819-26.426-46.245-46.245-72.671-66.065-19.819-6.606-33.032-19.819-39.639-33.032s-6.606-26.426-6.606-52.852h-132.129c0 33.032 6.606 66.065 19.819 79.277s33.032 39.639 66.065 59.458c19.819 19.819 33.032 33.032 46.245 46.245s13.213 33.032 13.213 52.852c0 19.819-6.606 39.639-19.819 52.852s-26.426 19.819-46.245 19.819c-19.819 0-33.032-6.606-46.245-13.213s-13.213-26.426-13.213-46.245h-132.129c0 52.852 13.213 92.49 52.852 118.916s79.277 39.639 138.735 39.639c59.458 0 112.31-13.213 145.342-46.245s52.852-72.671 52.852-125.523c0-26.426-6.606-59.458-26.426-85.884z" />
<glyph unicode="&#xe604;" glyph-name="mail" horiz-adv-x="1015" d="M1014.947 207.52v512.532l-261.391-220.388zM502.417 351.029l512.532 430.528v25.627h-1025.068v-20.501zM712.555 468.912l-205.014-179.387h-5.125l-210.139 179.387-302.397-333.147v-46.128h1025.068v46.128zM256.4 499.664l-266.518 220.388v-512.532z" />
<glyph unicode="&#xe605;" glyph-name="print" d="M867.385 609.538h-64.615v193.847c0 35.538-29.077 64.615-64.615 64.615h-452.308c-35.538 0-64.615-29.077-64.615-64.615v-193.847h-64.615c-35.538 0-64.615-29.077-64.615-64.615v-258.462c0-35.538 29.077-64.615 64.615-64.615h64.615v-129.23c0-35.538 29.077-64.615 64.615-64.615h452.308c35.538 0 64.615 29.077 64.615 64.615v129.23h64.615c35.538 0 64.615 29.077 64.615 64.615v258.462c0 35.538-29.077 64.615-64.615 64.615zM285.847 738.769c0 35.538 29.077 64.615 64.615 64.615h323.077c35.538 0 64.615-29.077 64.615-64.615v-129.231h-452.308v129.231zM738.153 157.231v-64.615h-452.308v290.769h452.308v-226.153zM802.769 451.231c-6.462-3.231-9.692-3.231-16.153-3.231-25.847 0-48.462 22.615-48.462 48.462s22.615 48.462 48.462 48.462c6.462 0 9.692 0 16.153-3.231 19.385-6.462 32.308-25.847 32.308-45.231s-12.923-38.769-32.308-45.231zM350.462 221.847h226.153v-64.615h-226.153v64.615zM350.462 318.769h323.077v-64.615h-323.077v64.615z" />
<glyph unicode="&#xe606;" glyph-name="close" horiz-adv-x="1032" d="M512.090 934.892c-268.96 0-486.983-218.022-486.983-486.983s218.022-486.983 486.983-486.983 486.983 218.022 486.983 486.983-218.022 486.983-486.983 486.983zM808.687 170.46l-19.147-19.147c-9.032-9.032-23.843-9.032-32.875 0l-244.575 244.394-244.575-244.575c-9.032-9.032-23.843-9.032-32.875 0l-19.147 19.147c-9.032 9.032-9.032 23.843 0 32.875l244.394 244.756-244.394 244.394c-9.032 9.032-9.032 23.843 0 32.875l19.328 19.328c9.032 9.032 23.843 9.032 32.875 0l244.394-244.394 244.394 244.394c9.032 9.032 23.843 9.032 32.875 0l19.328-19.328c9.032-9.032 9.032-23.843 0-32.875l-244.394-244.394 244.575-244.575c9.032-9.032 9.032-23.843-0.181-32.875z" />
<glyph unicode="&#xe607;" glyph-name="chevron" horiz-adv-x="1031" d="M213.985 841.97l412.684-393.927-412.684-393.927c-9.379-9.378-18.758-18.758-18.758-28.137 0-28.137 18.758-46.896 46.896-46.896 0 0 0 0 0 0 9.379 0 18.758 0 28.137 9.378l562.754 422.064c9.379 9.378 18.758 28.137 18.758 37.519 0 18.758-9.379 28.137-18.758 37.518l-562.754 422.064c-18.758 18.758-46.896 9.379-65.655-9.378-9.379-9.379-9.379-37.518 9.379-56.275z" />
<glyph unicode="&#xe608;" glyph-name="chevron-down" horiz-adv-x="1031" d="M121.53 749.515l393.927-412.684 393.927 412.684c9.378 9.379 18.758 18.758 28.137 18.758 28.137 0 46.896-18.758 46.896-46.896 0 0 0 0 0 0 0-9.379 0-18.758-9.378-28.137l-422.064-562.754c-9.378-9.379-28.137-18.758-37.519-18.758-18.758 0-28.137 9.379-37.518 18.758l-422.064 562.754c-18.758 18.758-9.379 46.896 9.378 65.655 9.379 9.379 37.518 9.379 56.275-9.379z" />
<glyph unicode="&#xe609;" glyph-name="chevron-back" horiz-adv-x="1031" d="M817.015 841.97l-412.684-393.927 412.684-393.927c9.379-9.378 18.758-18.758 18.758-28.137 0-28.137-18.758-46.896-46.896-46.896 0 0 0 0 0 0-9.379 0-18.758 0-28.137 9.378l-562.754 422.064c-9.379 9.378-18.758 28.137-18.758 37.519 0 18.758 9.379 28.137 18.758 37.518l562.754 422.064c18.758 18.758 46.896 9.379 65.655-9.378 9.379-9.379 9.379-37.518-9.379-56.275z" />
<glyph unicode="&#xe60a;" glyph-name="chevron-up" horiz-adv-x="1031" d="M909.47 146.485l-393.927 412.684-393.927-412.684c-9.378-9.379-18.758-18.758-28.137-18.758-28.137 0-46.896 18.758-46.896 46.896 0 0 0 0 0 0 0 9.379 0 18.758 9.378 28.137l422.064 562.754c9.378 9.379 28.137 18.758 37.519 18.758 18.758 0 28.137-9.379 37.518-18.758l422.064-562.754c18.758-18.758 9.379-46.896-9.378-65.655-9.379-9.379-37.518-9.379-56.275 9.379z" />
<glyph unicode="&#xe60b;" glyph-name="comment" horiz-adv-x="1074" d="M533.345 900.174c-271.304 0-486.956-166.957-486.956-368.695 0-173.913 160-320 375.653-354.783-20.87-62.609-48.696-139.131-90.435-180.87 90.435 0 173.913 90.435 236.522 173.913 257.392 13.913 459.13 173.913 459.13 368.695-6.956 194.783-222.608 361.739-493.913 361.739zM811.606 357.565h-556.522v69.565h556.522v-69.565zM811.606 496.696h-556.522v69.565h556.522v-69.565zM811.606 635.826h-556.522v69.565h556.522v-69.565z" />
<glyph unicode="&#xe60c;" glyph-name="external-link" d="M576 704v-64h64v-64h-64v-64h-64v-64h-64v-134.4h128v70.4h64v64h64v64h64v-64h64v256zM640 128h-384v384h192v64h-256v-512h512v256h-64z" />
<glyph unicode="&#xe60d;" glyph-name="download" horiz-adv-x="1144" d="M822.238 573.108h-162.932v232.758h-162.932v-232.758h-162.932l244.396-308.406 244.396 308.406zM903.704 415.996v-232.76h-651.726v232.76h-81.466v-308.406h814.656v308.406h-81.466z" />
<glyph unicode="&#xe60e;" glyph-name="menu" horiz-adv-x="1280" d="M0 960h1280v-184.052h-1280v184.052zM0 120.052h1280v-184.052h-1280v184.052zM0 542.118h1280v-184.052h-1280v184.052z" />
<glyph unicode="&#xe60f;" glyph-name="ecrire" horiz-adv-x="1015" d="M279.556 597.697l143.992 98.009 286.080-420.297-143.992-98.009-286.080 420.297zM349.509 804.195l-9.415 14.121-1.568 3.141c-7.844 10.985-21.97 14.121-32.953 6.277l-105.133-72.182c-10.985-7.844-14.121-21.97-6.277-32.953l1.568-3.141 9.415-14.121 32.953-48.643 144.36 98.855-32.953 48.643zM755.919 209.491l-144.36-97.289 158.482-80.028z" />
<glyph unicode="&#xe610;" glyph-name="horaires1" horiz-adv-x="1020" d="M748.801 487.007h-188.418v288.667c0 27.629-22.496 51.786-51.786 51.786s-51.785-22.496-51.785-51.786v-338.792c0-27.628 22.496-51.785 51.785-51.785h240.205c27.629 0 51.785 22.496 51.785 51.785-1.661 27.628-24.156 50.125-51.785 50.125z" />
<glyph unicode="&#xe611;" glyph-name="phone" horiz-adv-x="1012" d="M818.671 305.389c-71.23 71.23-105.925 118.613-187.243 37.449-78.719-78.719-140.778-8.867-187.243 37.449-46.314 46.466-116.17 108.525-37.449 187.243 81.166 81.166 33.934 116.015-37.449 187.243-63.436 63.436-94.158 55.792-149.642 0-73.827-73.827-75.661-298.822 112.194-486.678s412.699-186.021 486.527-112.194c55.942 55.33 63.586 86.054 0.306 149.488z" />
<glyph unicode="&#xe612;" glyph-name="pieton" horiz-adv-x="1012" d="M696.144 453.979c32.294-5.979 47.842 20.333 47.842 39.469 0 28.705-19.136 34.685-37.077 38.273-28.705 4.784-94.488 20.333-156.681 119.603-23.92 31.097-34.685 39.469-66.978 39.469-19.136 0-49.037 0-78.939-31.097-8.373-8.373-74.155-74.155-131.565-172.23-16.746-27.51-16.746-55.018 7.177-69.37 23.92-13.157 49.037 3.587 58.606 20.333 17.941 28.705 32.294 80.135 93.291 125.584-1.195-10.763-1.195-139.935-1.195-139.935l-41.862-108.839c0 0-63.39-149.504-89.703-187.778-11.961-19.136-34.685-53.822 8.373-83.723 49.037-23.92 75.35 32.294 82.526 45.45 76.546 137.544 110.035 242.795 110.035 242.795s93.291-117.213 129.171-257.149c7.177-23.92 34.685-43.057 69.37-29.901 33.489 11.961 26.313 41.862 19.136 71.762-63.39 182.994-187.778 320.539-187.778 320.539v117.213c0 0 52.625-81.331 166.25-100.467zM569.363 805.615c0-45.578-36.949-82.526-82.526-82.526s-82.526 36.949-82.526 82.526c0 45.578 36.949 82.526 82.526 82.526s82.526-36.949 82.526-82.526z" />
<glyph unicode="&#xe613;" glyph-name="mairie" d="M910.336 209.769h-21.657v35.67c0 7.643-6.37 14.014-14.014 14.014h-38.22v266.259c0 6.37-5.097 12.739-12.739 12.739h-49.685c-6.37 0-12.739-5.097-12.739-12.739v-266.259h-99.37v263.71c0 6.37-5.097 12.739-12.739 12.739h-49.685c-6.37 0-11.466-5.097-11.466-12.739v-263.71h-180.903v266.259c0 6.37-5.097 12.739-12.739 12.739h-49.685c-6.37 0-12.739-5.097-12.739-12.739v-266.259h-99.37v263.71c0 6.37-5.097 12.739-12.739 12.739h-49.685c-6.37 0-12.739-5.097-12.739-12.739v-263.71h-38.22c-7.643 0-14.014-6.37-14.014-14.014v-35.67h-21.657c-7.643 0-14.014-6.37-14.014-14.014v-44.589c0-7.643 6.37-14.014 14.014-14.014h821.709c7.643 0 14.014 6.37 14.014 14.014v44.589c3.822 7.643-1.275 14.014-8.917 14.014zM105.19 576.67h787.311c0 0 0 0 0 0 14.014 0 25.479 11.466 25.479 25.479 0 10.192-6.37 19.109-15.289 22.931l-202.56 112.109-107.012 59.876-53.507 29.302c-22.931 12.739-59.876 12.739-82.809 0l-56.054-30.575-145.232-80.259-163.069-90.452c-10.192-5.097-15.289-17.836-12.739-29.302 3.822-11.466 14.014-19.109 25.479-19.109z" />
<glyph unicode="&#xe614;" glyph-name="formulaire" d="M978.489 634.596l-204.8 197.973v-113.778c-6.827 0-36.409 0-118.329 0-195.698 0-329.956-61.44-329.956-270.791 20.48 86.471 31.858 106.951 227.556 106.951 61.44 0 200.249 0 220.729 0v-116.053l204.8 195.698zM52.338 290.987l204.8-195.698v113.778c6.827 0 36.409 0 118.329 0 195.698 0 329.956 61.44 329.956 270.791-20.48-86.471-31.858-106.951-227.556-106.951-61.44 0-200.249 0-220.729 0v116.053l-204.8-197.973z" />
<glyph unicode="&#xe615;" glyph-name="danger" horiz-adv-x="1028" d="M978.046 95.941l-365.295 357.353 354.706 346.764-97.941 97.941-354.705-346.764-354.706 346.764-97.941-97.941 354.706-346.764-365.294-357.353 97.941-97.941 365.295 357.352 365.294-357.352z" />
<glyph unicode="&#xe616;" glyph-name="warning" horiz-adv-x="1028" d="M1031.144-11.609h-993.042l497.712 923.981 495.33-923.981zM197.656 83.647h673.935l-335.777 626.307-338.158-626.307z" />
<glyph unicode="&#xe617;" glyph-name="info" horiz-adv-x="1028" d="M431.4-52h152v712h-152v-712zM431.4 776h152v152h-152v-152z" />
<glyph unicode="&#xe618;" glyph-name="success" horiz-adv-x="1028" d="M928.614 797.601l-563.599-567.836-241.542 243.661-74.158-76.277 241.542-243.661 74.158-76.277 637.755 646.231z" />
<glyph unicode="&#xe619;" glyph-name="folder" horiz-adv-x="1012" d="M892.532 578.532h-547.838c-33.623 0-45.492-23.733-63.284-63.284l-118.667-316.439c0-33.623 27.692-63.284 63.284-63.284h547.838c33.623 0 55.377 35.602 63.284 63.284l118.667 316.439c0 35.602-29.666 63.284-63.284 63.284zM218.119 556.779c3.957 11.869 9.888 21.757 15.821 31.644s13.843 21.757 23.733 33.623c7.913 7.913 15.821 13.843 25.71 17.799 13.843 5.93 27.692 9.888 43.51 7.913h488.505c1.98 0 5.93 0 7.913 0v7.913c0 39.557-31.644 73.177-73.177 73.177h-263.041l-102.843 59.335h-217.556c-39.557 0-73.177-31.644-73.177-73.177v-488.505l124.599 330.284z" />
<glyph unicode="&#xe61a;" glyph-name="user1" d="M146.432 98.816h758.784c0 131.072-66.56 245.76-166.912 314.368-57.344-56.32-132.096-87.040-211.968-87.040s-155.648 30.72-211.968 87.040c-102.4-67.584-167.936-183.296-167.936-314.368zM752.64 630.272c0-125.55-101.778-227.328-227.328-227.328s-227.328 101.778-227.328 227.328c0 125.55 101.778 227.328 227.328 227.328s227.328-101.778 227.328-227.328z" />
<glyph unicode="&#xe61b;" glyph-name="arobase" horiz-adv-x="1017" d="M680.783 246.108c-26.756 0-48.649 7.297-63.244 19.46s-26.756 31.621-31.621 58.379c-19.46-26.756-41.351-46.217-63.244-58.379s-48.649-17.027-72.973-17.027c-19.46 0-38.918 2.433-53.513 9.729s-26.756 17.027-36.487 29.189c-9.729 12.162-17.027 26.756-21.892 43.783s-7.297 34.054-7.297 53.513c0 29.189 4.865 58.379 17.027 87.567s26.756 55.946 48.649 77.838c21.892 24.324 48.649 41.351 80.271 58.379 31.621 14.594 70.54 21.892 111.892 21.892 21.892 0 41.351-2.433 58.379-4.865s34.054-9.729 48.649-14.594l-46.217-182.433c-7.297-24.324-9.729-46.217-9.729-63.244 0-12.162 2.433-21.892 4.865-29.189s7.298-14.594 12.162-19.46c4.865-4.865 12.162-7.298 17.027-9.729 7.298-2.433 14.594-2.433 21.892-2.433 17.027 0 31.621 4.865 46.217 14.594s26.756 21.892 38.918 38.918c12.162 17.027 19.46 38.918 26.756 60.811 7.298 24.324 9.729 51.082 9.729 80.271 0 46.216-7.297 87.567-21.892 121.621s-36.487 63.244-60.811 87.567c-26.756 24.324-55.946 41.351-92.433 53.513s-72.973 17.027-114.324 17.027c-46.217 0-87.567-9.729-126.487-26.756s-72.973-41.351-102.162-70.54c-29.189-29.189-53.513-65.676-68.108-107.027s-24.324-87.567-24.324-136.217c0-58.379 9.729-107.027 26.756-150.811s43.783-80.271 72.973-109.46c31.621-29.189 68.108-51.082 109.46-65.676s87.567-21.892 136.217-21.892c51.082 0 97.298 4.865 136.217 17.027s72.973 24.324 102.162 41.351c4.865 2.433 9.729 4.865 14.594 4.865 7.298 0 12.162-4.865 14.594-12.162l12.162-34.054c-36.487-24.324-77.838-43.783-124.054-55.946-46.217-14.594-97.297-21.892-155.676-21.892s-111.892 9.729-162.973 26.756c-51.082 19.46-94.865 46.216-131.351 80.271-43.783 38.918-70.54 80.271-92.433 131.351s-31.621 107.027-31.621 172.702c0 36.487 4.865 72.973 14.594 107.027s21.892 65.676 38.918 94.865c17.027 29.189 36.487 55.946 60.811 80.271s51.082 46.217 77.838 63.244c29.189 17.027 60.811 31.621 92.433 41.351 34.054 9.729 68.108 14.594 104.594 14.594 31.621 0 60.811-2.433 90-9.729 31.621-9.729 60.811-19.46 87.567-31.621s51.082-29.189 72.973-48.649c21.892-19.46 41.351-41.351 58.379-65.676s29.189-53.513 36.487-82.702c9.729-31.621 14.594-63.244 14.594-99.729s-4.865-70.54-14.594-99.729c-9.729-31.621-24.324-58.379-41.351-80.271s-38.918-41.351-63.244-53.513-55.946-24.324-82.702-24.324zM464.295 306.918c9.729 0 21.892 2.433 31.621 4.865s21.892 9.729 31.621 17.027c9.729 7.298 19.46 19.46 26.756 34.054s14.594 31.621 21.892 53.513l38.918 148.379c-12.162 2.433-26.756 4.865-43.783 4.865-24.324 0-48.649-4.865-70.54-17.027-21.892-9.729-38.918-24.324-53.513-41.351s-26.756-36.487-36.487-58.379c-9.729-21.892-12.162-43.784-12.162-68.108s4.865-43.784 17.027-58.379c9.729-12.162 26.756-19.46 48.649-19.46z" />
<glyph unicode="&#xe61c;" glyph-name="info2" d="M687.543 199.314c-21.943 0-102.4-124.343-153.6-124.343-14.629 0-21.943 7.314-21.943 21.943 0 21.943 14.629 58.514 29.257 80.457l109.714 285.257c58.514 146.286-14.629 182.857-80.457 182.857-87.771 0-168.229-43.886-226.743-95.086-14.629-21.943-87.771-87.771-87.771-109.714 0-7.314 7.314-21.943 21.943-21.943 29.257 0 102.4 131.657 160.914 131.657 14.629 0 29.257-14.629 14.629-36.571l-109.714-263.314c-7.314-21.943-65.829-146.286-65.829-219.429 0-58.514 36.571-80.457 95.086-80.457 153.6 0 336.457 182.857 336.457 226.743 0 14.629-14.629 21.943-21.943 21.943zM658.286 916.114c-65.829 0-124.343-51.2-124.343-117.029 0-58.514 43.886-102.4 102.4-102.4 73.143 0 131.657 51.2 131.657 117.029 0 58.514-51.2 102.4-109.714 102.4z" />
<glyph unicode="&#xe61d;" glyph-name="savoir" horiz-adv-x="1030" d="M922.19 478.72l-422.4 345.6c-7.68 7.68-23.040 7.68-38.4 7.68-7.68-7.68-15.36-23.040-15.36-38.4v-168.96h-314.88c-23.040 0-38.4-15.36-38.4-38.4v-276.48c0-23.040 15.36-38.4 38.4-38.4h314.88v-168.96c0-15.36 7.68-23.040 23.040-30.72 0-7.68 7.68-7.68 7.68-7.68 7.68 0 15.36 0 23.040 7.68l422.4 345.6c7.68 7.68 15.36 23.040 15.36 30.72s-7.68 23.040-15.36 30.72z" />
<glyph unicode="&#xe61e;" glyph-name="noter" d="M512.474 349.632l173.827 220.759v159.919c0 53.887-45.197 99.083-99.083 99.083h-10.432c0 0 0 0 0-1.74 0-48.671-39.983-88.652-88.652-88.652h-219.020c-48.671 0-88.652 39.983-88.652 88.652 0 0 0 0 0 1.74h-10.432c-53.887 0-99.083-45.197-99.083-99.083v-587.532c0-53.887 45.197-99.083 99.083-99.083h415.446c53.887 0 99.083 45.197 99.083 99.083v43.455l-224.236-100.819 52.15 264.215zM185.681 641.658h387.63c26.074 0 46.931-20.859 46.931-46.931s-20.859-46.931-46.931-46.931h-387.63c-26.074 0-46.931 20.859-46.931 46.931 0 24.338 22.597 46.931 46.931 46.931zM185.681 367.013c-26.074 0-46.931 20.859-46.931 46.931s20.859 46.931 46.931 46.931h265.954c26.074 0 46.931-20.859 46.931-46.931s-20.859-46.931-46.931-46.931h-265.954zM269.117 775.505h219.020c29.552 0 53.887 24.338 53.887 53.887s-24.338 53.887-53.887 53.887h-219.020c-29.552 0-53.887-24.338-53.887-53.887s26.074-53.887 53.887-53.887zM980.061 742.476c-27.812 22.597-66.058 19.122-85.173-5.212l-302.457-382.416-5.212-6.954-17.385-22.597-26.074-135.585 125.154 55.621 17.385 22.597 5.212 6.954 302.457 384.155c19.122 24.338 12.167 60.839-13.905 83.435z" />
<glyph unicode="&#xe61f;" glyph-name="web" horiz-adv-x="1030" d="M721.61 407.334l-429.377 383.928 62.193-572.903 132.761 92.095 110.035-215.287 82.526 43.057-110.035 214.090z" />
<glyph unicode="&#xe620;" glyph-name="message" horiz-adv-x="1410" d="M0 960v-1024h1410v1024h-1410zM64.2 789.4l335-277-335-367.2v644.2zM1352.6-2.9h-1288.4v58l380.1 418.7 264.1-225.5h6.4l257.7 225.5 380.1-418.7v-58zM1024.1 512.4l328.5 277v-644.2l-328.5 367.2zM1352.6 866.7l-644.2-541.1-644.2 547.6v25.7h1288.4v-32.2z" />
<glyph unicode="&#xe621;" glyph-name="rappel" horiz-adv-x="1030" d="M839.893 177.154c-29.938 28.577-88.453 95.259-107.506 298.021-10.887 161.938-81.649 220.453-148.33 240.866 1.36 6.803 2.723 13.609 2.723 20.413 0 53.073-43.547 97.979-97.979 97.979s-97.979-43.547-97.979-97.979c0-5.443 0-12.246 1.36-17.692-69.404-17.692-148.33-73.485-159.215-243.587-19.053-202.764-77.566-269.444-107.506-298.021-17.692-16.331-108.865-138.803 356.537-138.803s375.587 121.113 357.898 138.803zM488.798 792.247c31.3 0 55.793-24.495 55.793-55.793 0-4.081 0-8.165-1.36-12.246-24.495 2.723-44.907 2.723-59.875 2.723-12.246 0-29.938 0-48.989-1.36-1.36 4.081-1.36 6.803-1.36 10.887-1.36 31.3 24.495 55.793 55.793 55.793zM483.355 83.255c-221.814 0-310.268 50.35-310.268 50.35s88.453 63.959 310.268 63.959c136.082 0 234.062-24.495 310.268-63.959-77.566-34.020-175.547-50.35-310.268-50.35zM483.355 125.443c34.020 0 62.598 20.413 62.598 44.907h-125.196c-1.36-25.857 27.216-44.907 62.598-44.907z" />
<glyph unicode="&#xe622;" glyph-name="format" horiz-adv-x="853" d="M830.571 651.47v14.431l-277.977 290.738h-452.205c-51.95 0-92.659-42.986-92.659-92.659v-831.956c0-51.95 42.986-92.659 92.659-92.659h637.525c51.95 0 92.659 40.709 92.659 92.659v619.448zM810.217 649.19v-619.448c0-38.431-31.596-70.025-70.025-70.025h-639.802c-38.431 0-70.025 31.596-70.025 70.025v834.234c0 38.431 31.596 70.025 70.025 70.025h438.535v-210.228c0-40.709 33.871-72.306 72.306-72.306h198.989v-2.279z" />
<glyph unicode="&#xe623;" glyph-name="rss" d="M110.592 27.648v0 0zM195.243 232.448c-32.768 0-62.805-13.653-86.016-35.499v0c-21.845-21.845-35.499-51.883-35.499-84.651s13.653-62.805 35.499-84.651c21.845-21.845 51.883-35.499 86.016-35.499 32.768 0 62.805 13.653 86.016 35.499v0c21.845 21.845 35.499 51.883 35.499 84.651s-13.653 62.805-35.499 84.651c-21.845 23.211-51.883 35.499-86.016 35.499zM718.165 633.856c-165.205 165.205-391.851 267.605-643.072 267.605v-173.397c405.504 0 735.915-330.411 735.915-735.915h174.763c-1.365 249.856-102.4 476.501-267.605 641.707zM281.259 198.315v0 0zM75.093 591.531v-173.397c113.323 0 221.184-45.056 301.739-125.611s124.245-187.051 124.245-301.739v0 0h174.763c0 165.205-66.901 315.392-176.128 424.619s-259.413 176.128-424.619 176.128z" />
<glyph unicode="&#xe624;" glyph-name="google-plus" horiz-adv-x="951" d="M420 505.143q0-20.571 18.286-40.286t44.286-38.857 51.714-42 44-59.429 18.286-81.143q0-51.429-27.429-98.857-41.143-69.714-120.571-102.571t-170.286-32.857q-75.429 0-140.857 23.714t-98 78.571q-21.143 34.286-21.143 74.857 0 46.286 25.429 85.714t67.714 65.714q74.857 46.857 230.857 57.143-18.286 24-27.143 42.286t-8.857 41.714q0 20.571 12 48.571-26.286-2.286-38.857-2.286-84.571 0-142.571 55.143t-58 139.714q0 46.857 20.571 90.857t56.571 74.857q44 37.714 104.286 56t124.286 18.286h238.857l-78.857-50.286h-74.857q42.286-36 64-76t21.714-91.429q0-41.143-14-74t-33.714-53.143-39.714-37.143-34-35.143-14-37.714zM336.571 560q21.714 0 44.571 9.429t37.714 24.857q30.286 32.571 30.286 90.857 0 33.143-9.714 71.429t-27.714 74-48.286 59.143-66.857 23.429q-24 0-47.143-11.143t-37.429-30q-26.857-33.714-26.857-91.429 0-26.286 5.714-55.714t18-58.857 29.714-52.857 42.857-38.286 55.143-14.857zM337.714 61.143q33.143 0 63.714 7.429t56.571 22.286 41.714 41.714 15.714 62.286q0 14.286-4 28t-8.286 24-15.429 23.714-16.857 20-22 19.714-20.857 16.571-23.714 17.143-20.857 14.857q-9.143 1.143-27.429 1.143-30.286 0-60-4t-61.429-14.286-55.429-26.286-39.143-42.571-15.429-60.286q0-40 20-70.571t52.286-47.429 68-25.143 72.857-8.286zM800.571 561.714h121.714v-61.714h-121.714v-125.143h-60v125.143h-121.143v61.714h121.143v124h60v-124z" />
<glyph unicode="&#xe625;" glyph-name="home" d="M984 429.6l-472 357.6-472-357.6v162l472 357.6 472-357.6v-162zM896 404v-384h-768v384l384 288 384-288z" />
<glyph unicode="&#xe626;" glyph-name="more" d="M819.2 448c0-28.314-2.458-51.2-30.771-51.2h-225.229v-225.229c0-28.262-22.886-30.771-51.2-30.771s-51.2 2.509-51.2 30.771v225.229h-225.229c-28.262 0-30.771 22.886-30.771 51.2s2.509 51.2 30.771 51.2h225.229v225.229c0 28.314 22.886 30.771 51.2 30.771s51.2-2.458 51.2-30.771v-225.229h225.229c28.314 0 30.771-22.886 30.771-51.2z" />
<glyph unicode="&#xe627;" glyph-name="attention" horiz-adv-x="1005" d="M431.4 948h152v-712h-152v712zM431.4 120h152v-152h-152v152z" />
<glyph unicode="&#xe628;" glyph-name="trash" horiz-adv-x="921" d="M798.734 766.644v-659.091c0.023-0.948 0.038-2.063 0.038-3.182 0-75.311-61.052-136.364-136.364-136.364-0.013 0-0.026 0-0.039 0h-406.361c-75.688 1.78-136.364 63.559-136.364 139.509 0 0.013 0 0.025 0 0.038v-0.002 659.091h-66.818c-0.443-0.031-0.961-0.049-1.482-0.049-12.552 0-22.727 10.176-22.727 22.727 0 0.818 0.043 1.625 0.127 2.421l-0.008-0.099c0 13.305 10.786 24.091 24.091 24.091v0h203.182v90.909c0.741 11.951 10.614 21.364 22.687 21.364 0.014 0 0.029 0 0.043 0h363.635c12.705-0.742 22.727-11.227 22.727-24.053 0-0.013 0-0.027 0-0.040v0.002-90.909h201.818c0.453 0.030 0.981 0.048 1.513 0.048 12.361 0 22.548-9.309 23.931-21.3l0.010-0.112c-0.906-12.924-11.167-23.185-24.009-24.086l-0.082-0.005zM168.279 766.644v-659.091c0-50.208 40.702-90.909 90.909-90.909v0h404.091c50.208 0 90.909 40.702 90.909 90.909v0 659.091zM619.643 814.825v65h-318.182v-65zM295.552 603.461c0.255 13.108 10.942 23.636 24.086 23.636 0.002 0 0.003 0 0.005 0v0c12.867-0.679 23.163-10.817 24.086-23.554l0.005-0.083v-423.637c-0.681-13.117-11.020-23.616-24.008-24.541l-0.082-0.005c-13.203 0.25-23.841 10.887-24.091 24.067v0.023zM577.371 603.461c0 0.001 0 0.003 0 0.005 0 13.054 10.582 23.636 23.636 23.636 0.159 0 0.32-0.002 0.478-0.005h-0.023c12.782-0.877 22.966-10.905 24.083-23.538l0.008-0.098v-423.637c-1.098-12.839-11.252-22.993-23.993-24.084l-0.097-0.007c-13.305 0-24.091 10.786-24.091 24.091v0zM435.098 603.461c1.125 12.731 11.309 22.759 24.010 23.632l0.081 0.005c0.135 0.003 0.294 0.005 0.455 0.005 13.054 0 23.636-10.582 23.636-23.636 0-0.002 0-0.003 0-0.005v0-423.637c0-13.305-10.786-24.091-24.091-24.091v0c-12.839 1.098-22.993 11.252-24.084 23.993l-0.007 0.098z" />
<glyph unicode="&#xe629;" glyph-name="close2" horiz-adv-x="1029" d="M851.467 196.667c9.6-9.6 9.6-25.2 0-34.8l-20.267-20.267c-9.6-9.6-25.2-9.6-34.8 0l-570.533 570.533c-9.6 9.6-9.6 25.2 0 34.8l20.267 20.267c9.6 9.6 25.2 9.6 34.8 0l570.533-570.533zM280.933 141.6c-9.6-9.6-25.2-9.6-34.8 0l-20.267 20.267c-9.6 9.6-9.6 25.2 0 34.8l570.533 570.533c9.6 9.6 25.2 9.6 34.8 0l20.267-20.267c9.6-9.6 9.6-25.2 0-34.8l-570.533-570.533z" />
<glyph unicode="&#xe62a;" glyph-name="star" d="M54.067 499.2l206.438-174.899-64.102-262.963c-12.493-49.152 41.574-89.293 85.606-61.645l229.99 142.131 230.195-142.131c42.803-26.419 96.87 12.493 85.606 61.645l-64.102 262.963 206.234 174.899c38.912 32.768 18.842 96.87-32.768 100.762l-270.336 20.070-101.99 250.47c-18.842 46.49-85.606 46.49-105.677 0l-101.99-250.47-270.541-20.070c-51.61-5.12-71.68-67.994-32.563-100.762z" />
<glyph unicode="&#xe62b;" glyph-name="partage" horiz-adv-x="1019" d="M981.704 520.216l-338.857 288.861v-144.43c-649.936 0-605.498-577.722-605.498-577.722 127.766 399.961 605.498 283.306 605.498 283.306v-149.987l338.857 299.971z" />
<glyph unicode="&#xe62c;" glyph-name="more2" d="M1024 503.138h-456.862v456.862h-110.277v-456.862h-456.862v-110.277h456.862v-456.862h110.277v456.862h456.862z" />
<glyph unicode="&#xe62d;" glyph-name="triangle" horiz-adv-x="455" d="M0 960v-1024l455.111 512z" />
<glyph unicode="&#xe62e;" glyph-name="next" horiz-adv-x="1017" d="M962.617 497.468l-318.013 254.41-42.402-56.535 254.41-204.944h-826.834v-63.603h826.834l-254.41-204.944 42.402-56.535 318.013 254.41 42.402 35.334z" />
<glyph unicode="&#xe62f;" glyph-name="edit" horiz-adv-x="1015" d="M735.444 597.697l-143.992 98.009-286.080-420.297 143.992-98.009 286.080 420.297zM665.491 804.195l9.415 14.121 1.568 3.141c7.844 10.985 21.97 14.121 32.953 6.277l105.133-72.182c10.985-7.844 14.121-21.97 6.277-32.953l-1.568-3.141-9.415-14.121-32.953-48.643-144.36 98.855 32.953 48.643zM259.081 209.491l144.36-97.289-158.482-80.028z" />
<glyph unicode="&#xe630;" glyph-name="attention2" horiz-adv-x="1028" d="M871.047 221.465l-300.79 508.777c-9.244 16.663-27.853 27.853-48.287 27.853s-37.097-11.19-48.287-27.853l-300.668-508.777c-9.244-16.663-11.19-39.043 0-55.706 9.244-16.663 27.853-27.853 48.287-27.853h601.459c20.434 0 39.043 11.19 48.287 27.853 9.244 16.785 9.244 39.043 0 55.706zM494.117 323.634v0 254.328h49.26v-254.328h-49.26zM543.498 284.591v-59.355h-49.26v59.355h49.26z" />
<glyph unicode="&#xe631;" glyph-name="triangle-down" horiz-adv-x="1031" d="M1027.5 675.5h-1024l512-455.111z" />
<glyph unicode="&#xe632;" glyph-name="asso" d="M772.684 317.174h223.751c0 107.030-83.449 204.477-187.356 204.477-43.932 0-84.526-16.044-116.721-43.932 42.855-40.702 71.712-96.37 80.326-160.545zM908.679 630.834c0-55.008-44.593-99.6-99.6-99.6s-99.6 44.593-99.6 99.6c0 55.008 44.593 99.6 99.6 99.6s99.6-44.593 99.6-99.6zM337.026 476.642c-32.087 28.857-72.789 47.054-117.798 47.054-102.723 0-187.356-98.524-187.356-205.554h223.751c8.614 63.206 38.548 117.798 81.403 158.499zM318.829 630.834c0-55.008-44.593-99.6-99.6-99.6s-99.6 44.593-99.6 99.6c0 55.008 44.593 99.6 99.6 99.6s99.6-44.593 99.6-99.6zM639.919 661.845c0-69.161-56.066-125.227-125.227-125.227s-125.227 56.066-125.227 125.227c0 69.161 56.066 125.227 125.227 125.227s125.227-56.066 125.227-125.227zM278.127 261.505c0 143.425 105.953 260.146 235.488 260.146s235.488-116.721 235.488-260.146h-470.975z" />
<glyph unicode="&#xe633;" glyph-name="param" d="M208.2 631.4c-18.6-7-14.2-21.6-6.4-48.6 7.8-26.8 8.8-52.6-10.6-72-3.8-3.4-7.6-6.8-11.2-10.2-0.2-0.2-0.4-0.2-0.6-0.4-20.6-18.6-46.2-16-72.8-6.8-26.6 9.4-40.8 14.4-48.8-3.6s-2.6-5.8-15.6-34.8c-0.2-0.2-0.2-0.4-0.4-0.8-13-29-7.6-16.8-15.6-34.8-8-18.2 5.2-25.4 29.8-39 24.4-13.4 43.2-30.8 43.4-58-0.4-5.2-0.4-10.2-0.4-15.4 0-0.4-0.2-0.6-0.2-1-1.4-27.6-21.4-44-46.6-56.2-25.4-12.2-39.2-18.6-32-37.2 7-18.4 2.2-5.8 13.6-35.6 0-0.4 0.2-0.6 0.4-0.8 11.4-29.8 6.6-17.4 13.6-35.6 7-18.6 21.6-14.2 48.6-6.4 26.8 7.8 52.6 8.8 72-10.6 3.4-3.8 6.8-7.6 10.4-11.2 0.2-0.2 0.2-0.4 0.4-0.8 18.4-20.4 16-46.2 6.8-72.8s-14.4-40.8 3.6-49c18-8 5.8-2.6 34.8-15.6 0.2 0 0.4-0.2 0.6-0.2 0 0 0.2 0 0.2 0 29-13 16.8-7.6 34.8-15.6s25.4 5.2 39 29.8c13.4 24.4 31 43.4 58.2 43.4 5-0.4 10-0.6 14.8-0.4 0.6 0 0.8-0.4 1.2-0.4 27.6-1.4 44-21.4 56.2-46.6 12.2-25.4 18.6-39 37.2-32 18.4 7 6 2.2 35.8 13.6 0.2 0 0.2 0 0.4 0.2 0.2 0 0.2 0 0.4 0.2 29.8 11.4 17.4 6.6 35.8 13.6s14.2 21.6 6.4 48.6c-7.8 27-8.8 52.8 10.8 72.2v0c3.6 3.2 7.4 6.6 10.8 10 0.2 0.2 0.4 0.2 0.8 0.6 20.4 18.4 46.2 16 72.8 6.8s40.8-14.4 48.8 3.6c8 18 2.6 5.8 15.6 34.8 0 0.2 0.2 0.4 0.2 0.6s0 0.2 0.2 0.4c13 29.2 7.6 17 15.6 34.8 8 18-5.2 25.4-29.8 39s-43.4 31-43.4 58.4c0.2 4.8 0.4 9.8 0.4 14.6 0 0.6 0.2 0.8 0.4 1.4 1.4 27.6 21.4 44 46.8 56.2 25.2 12.2 39 18.8 32 37.2s-2.4 5.8-13.6 35.8c0 0.2-0.2 0.2-0.2 0.6 0 0.2 0 0.2-0.2 0.4-11.4 29.8-6.6 17.2-13.6 35.8-7 18.4-21.6 14.2-48.6 6.4s-52.8-8.8-72.2 10.8c0 0 0 0 0 0-3.2 3.6-6.6 7.4-10 10.8-0.2 0.2-0.2 0.6-0.6 0.8-18.4 20.4-16 46.2-6.8 72.8s14.4 40.8-3.6 48.8c-18 8-5.8 2.6-34.8 15.6-0.2 0-0.4 0.2-0.8 0.2 0 0 0 0 0 0-29.2 13-17 7.6-34.8 15.6-18 8-25.4-5.2-39-29.8-13.4-24.4-31-43.4-58.4-43.4-4.8 0.4-9.8 0.4-14.8 0.4-0.6 0-0.6 0.4-1.2 0.4-27.6 1.4-44 21.4-56.2 46.6-12.2 25.4-18.6 39-37.2 32-18.6-7.2-5.4-2.2-36.6-14-30-12-17.6-7.2-36-14.2zM479.2 342.8c22.6-59-7-125-66-147.6-59-22.4-125 7-147.6 66s7 125 66 147.6c59 22.4 125-7 147.6-66zM616 870c-8.8-8.4-3-15.6 7.8-29s17.4-27.6 11-43.2c-1.4-2.8-2.6-5.6-3.8-8.4 0-0.2-0.2-0.2-0.2-0.4-7.2-15.2-22.4-20-39.6-21s-26.4-1.4-26.8-13.6c-0.4-12-0.2-3.8-0.6-23.4 0-0.2 0-0.4 0-0.6-0.6-19.4-0.4-11.4-0.6-23.4-0.4-12.2 9-13.2 26-15s31.6-7.2 38.2-22.6c1-3 2.2-5.8 3.4-8.8 0-0.2 0-0.4 0.2-0.6 5.8-16-1.8-29.8-13.2-42.8-11.4-12.8-17.8-19.8-9.4-28.6 8.2-8.8 2.6-2.8 16-17 0.2-0.2 0.2-0.2 0.4-0.4 13.4-14.2 7.8-8.2 16-17 8.4-8.8 15.6-3 29 7.8 13.4 10.6 27.6 17.4 43.2 11 2.8-1.4 5.6-2.8 8.4-3.8 0.2 0 0.2-0.2 0.4-0.4 15.2-7.2 20-22.4 20.8-39.4 1-17.2 1.4-26.4 13.6-26.8 12-0.2 3.8 0 23.4-0.6 0.2 0 0.2 0 0.4 0 0 0 0.2 0 0.2 0 19.4-0.6 11.4-0.2 23.4-0.6 12-0.2 13 9 15 26 1.8 17 7.4 31.8 22.6 38.2 2.8 1 5.8 2 8.6 3.2 0.4 0 0.4 0 0.8 0.2 15.8 5.6 29.8-1.8 42.6-13.2s19.8-17.6 28.6-9.4c8.8 8.2 2.8 2.6 17 16 0 0 0.2 0.2 0.2 0.2s0.2 0 0.2 0.2c14.2 13.4 8.2 7.8 17 16 8.8 8.4 3 15.6-7.8 29s-17.4 27.8-10.8 43.4v0c1.4 2.8 2.6 5.4 3.8 8.2 0 0.2 0.2 0.2 0.4 0.4 7.2 15.2 22.4 19.8 39.6 20.8s26.4 1.4 26.8 13.6c0.4 12 0.2 3.8 0.6 23.4 0 0.2 0 0.2 0 0.4 0 0 0 0.2 0 0.2 0.6 19.6 0.2 11.4 0.6 23.4s-8.8 13-26 15c-17 1.8-31.8 7.4-38.2 22.8-1 2.8-2 5.6-3.2 8.4 0 0.4 0 0.6-0.2 0.8-5.6 16 1.8 29.8 13.2 42.6s17.6 19.8 9.4 28.6c-8.2 8.8-2.6 2.8-16 17 0 0-0.2 0.2-0.2 0.2s0 0.2-0.2 0.2c-13.4 14.2-7.8 8.2-16 17-8.4 8.8-15.6 3-29-7.8s-27.8-17.4-43.4-10.8c0 0 0 0 0 0-2.8 1.4-5.4 2.6-8.2 3.8-0.2 0.2-0.2 0.2-0.4 0.4-15.2 7.2-20 22.4-20.8 39.6-1 17.2-1.4 26.4-13.6 26.8-12 0.4-3.8 0.2-23.4 0.6-0.2 0-0.2 0-0.4 0 0 0 0 0 0 0-19.6 0.6-11.4 0.2-23.4 0.6-12.2 0.4-13-9-15-26-1.8-17-7.4-31.8-22.8-38.2-2.8-1-5.6-2-8.4-3.2-0.4 0-0.4 0-0.8-0.2-16-5.6-30 1.8-42.8 13.2s-19.8 17.6-28.6 9.4c-8.8-8.4-2.6-2.4-17.4-16.4-14.8-13.4-8.8-7.8-17.6-16zM837 770.6c26.6-28 25.4-72.4-2.6-98.8-28-26.6-72.2-25.4-98.8 2.6s-25.4 72.4 2.6 98.8c27.8 26.6 72.2 25.4 98.8-2.6z" />
<glyph unicode="&#xe634;" glyph-name="pending" horiz-adv-x="1013" d="M258.75 491.408c0-24.191-19.615-43.806-43.806-43.806s-43.806 19.615-43.806 43.806c0 24.191 19.615 43.806 43.806 43.806s43.806-19.615 43.806-43.806zM536.71 491.408c0-36.507-29.595-66.106-66.106-66.106s-66.106 29.595-66.106 66.106c0 36.507 29.595 66.106 66.106 66.106s66.106-29.595 66.106-66.106zM842.548 491.408c0-45.307-36.73-82.035-82.035-82.035s-82.035 36.73-82.035 82.035c0 45.307 36.73 82.035 82.035 82.035s82.035-36.73 82.035-82.035z" />
<glyph unicode="&#xe635;" glyph-name="balloon" d="M200.659-19.953v289.129h-120.471v602.353h837.271v-602.353h-457.788l-259.012-289.129zM140.424 329.412h120.471v-192.753l174.682 192.753h421.647v481.882h-716.8v-481.882z" />
<glyph unicode="&#xe800;" glyph-name="calendar" d="M820.868 783.406c-9.684-54.153-39.449-83.202-84.636-83.381-45.366-0.179-74.774 28.332-85.353 83.381-92.705 0-185.589 0-278.294 0-9.145-53.077-38.374-82.306-82.842-83.381-45.904-1.076-75.312 26.896-87.147 83.202-46.083 0-92.347 0-138.609 0 0-261.44 0-522.162 0-783.422 298.557 0 596.757 0 895.852 0 0 261.44 0 522.162 0 783.601-46.622 0-92.705 0-138.968 0zM903.711 55.93c-261.261 0-521.983 0-783.422 0 0 186.307 0 372.614 0 559.46 261.081 0 521.983 0 783.422 0 0-186.307 0-372.435 0-559.46zM231.822 782.331c0.718-30.125 25.463-54.332 55.407-54.511 30.304-0.179 55.588 24.207 56.125 54.692 0.358 19.725 0.358 39.449 0 59.174-0.358 30.125-25.103 54.153-55.228 54.332-30.662 0.179-55.588-23.849-56.125-54.511-0.179-9.863 0-19.725 0-29.586-0.179-9.863-0.358-19.725-0.179-29.586zM735.873 727.819c30.304-0.179 55.407 24.388 55.946 54.87 0.179 9.503 0 19.187 0 28.69 0 9.863 0.179 19.725 0 29.586-0.539 30.843-25.103 55.049-55.588 55.049-30.662 0-55.588-24.028-55.946-54.692-0.358-19.366-0.358-38.91 0-58.277 0.358-30.662 25.103-55.049 55.588-55.228zM473.717 572.354c-31.739 0-62.94 0-94.498 0 0-31.918 0-63.119 0-94.856 31.739 0 62.94 0 94.498 0 0 31.739 0 63.119 0 94.856zM644.424 572.354c-31.558 0-62.401 0-94.319 0 0-32.097 0-63.477 0-94.856 31.918 0 63.119 0 94.319 0 0 31.918 0 63.298 0 94.856zM815.13 572.175c-31.918 0-63.298 0-94.677 0 0-31.918 0-63.298 0-94.677 31.739 0 62.94 0 94.677 0 0 31.739 0 62.94 0 94.677zM303.189 446.834c-31.739 0-62.58 0-94.319 0 0-32.276 0-63.477 0-95.037 31.739 0 62.94 0 94.319 0 0 31.918 0 63.477 0 95.037zM473.717 446.655c-31.739 0-62.94 0-94.498 0 0-31.918 0-63.119 0-94.677 32.276 0 63.477 0 94.498 0 0 31.918 0 63.119 0 94.677zM644.424 446.476c-31.918 0-63.298 0-94.498 0 0-32.097 0-63.298 0-94.677 31.739 0 62.94 0 94.498 0 0 31.918 0 63.119 0 94.677zM815.13 446.655c-32.276 0-63.477 0-94.677 0 0-31.918 0-63.119 0-94.856 31.739 0 62.94 0 94.677 0 0 31.739 0 63.119 0 94.856zM208.87 226.279c31.918 0 63.119 0 94.677 0 0 31.739 0 62.759 0 94.677-32.097 0-63.298 0-94.677 0 0-31.918 0-63.298 0-94.677zM379.397 320.956c0-31.918 0-63.119 0-94.856 31.558 0 62.58 0 94.141 0 0 32.097 0 63.477 0 94.856-31.918 0-62.94 0-94.141 0zM644.424 320.956c-32.097 0-63.298 0-94.498 0 0-31.918 0-63.119 0-94.856 31.739 0 62.759 0 94.498 0 0 31.739 0 62.94 0 94.856zM720.453 226.279c31.739 0 62.94 0 94.677 0 0 31.739 0 63.119 0 94.677-31.918 0-63.298 0-94.677 0 0-32.097 0-63.298 0-94.677zM208.87 100.58c31.918 0 63.119 0 94.677 0 0 31.739 0 62.94 0 94.677-31.739 0-63.119 0-94.677 0 0-31.918 0-63.119 0-94.677zM379.219 100.58c31.739 0 62.94 0 94.498 0 0 31.558 0 62.759 0 94.856-31.918 0-63.119 0-94.498 0 0-31.918 0-63.119 0-94.856zM644.245 195.616c-31.558 0-62.58 0-94.498 0 0-32.097 0-63.298 0-95.037 31.558 0 62.759 0 94.498 0 0 31.739 0 63.119 0 95.037z" />
<glyph unicode="&#xe801;" glyph-name="compte" horiz-adv-x="1098" d="M322.765 236.397c104.447 60.2 142.072 49.364 140.266 92.708-2.408 60.802-80.367 89.096-79.464 223.041 0.301 79.765 47.859 173.978 160.433 173.978s159.831-94.213 160.433-173.978c0.602-133.945-77.056-162.239-79.464-223.041-1.806-43.344 35.819-32.508 140.266-92.708 95.417-55.083 111.972-87.29 116.487-150.801 78.862 83.076 126.721 195.048 126.721 318.457 0 255.85-207.088 463.238-463.238 463.238s-462.335-207.389-462.335-463.238c0-121.604 46.956-232.372 123.711-315.146 5.117 61.705 22.575 93.611 116.186 147.49z" />
<glyph unicode="&#xe900;" glyph-name="doc" horiz-adv-x="819" d="M442.368 638.874v227.738c0 20.48-16.384 36.045-36.045 36.045h-249.037c-38.502 0-70.451-31.949-70.451-70.451v-737.28c0-38.502 31.949-70.451 70.451-70.451h526.746c38.502 0 70.451 31.949 70.451 70.451v460.39c0 20.48-16.384 36.045-36.045 36.045h-227.738c-39.322 0-48.333 9.011-48.333 47.514zM508.723 635.597h244.941l-267.059 267.059v-244.941c0-11.469 9.83-22.118 22.118-22.118z" />
<glyph unicode="&#xe901;" glyph-name="cancel" d="M75.007 536.331h874v-176.66h-874v176.66z" />
<glyph unicode="&#xe902;" glyph-name="delais" horiz-adv-x="951" d="M504.333 255.002c13.31 0 24.846-10.648 24.846-24.846 0-13.31-10.648-24.846-24.846-24.846-13.31 0-24.846 10.648-24.846 24.846 0.887 14.198 11.536 24.846 24.846 24.846zM666.718 625.026c13.31 0 24.846-10.648 24.846-24.846s-10.648-24.846-24.846-24.846c-13.31 0-24.846 10.648-24.846 24.846s10.648 24.846 24.846 24.846zM666.718 332.201c13.31 0 24.846-10.648 24.846-24.846 0-13.31-10.648-24.846-24.846-24.846-13.31 0-24.846 10.648-24.846 24.846s10.648 24.846 24.846 24.846zM720.846 475.951c13.31 0 24.846-10.648 24.846-24.846 0-13.31-10.648-24.846-24.846-24.846-13.31 0-24.846 10.648-24.846 24.846s11.536 24.846 24.846 24.846zM546.038 651.646c0 19.522-15.972 35.494-35.494 35.494s-35.494-15.972-35.494-35.494v-202.315l-108.256-115.355c-13.31-14.198-12.423-36.381 1.775-50.579 7.099-6.211 15.972-9.761 23.958-9.761 9.761 0 18.634 3.549 25.733 11.536l116.243 123.341c5.324 6.211 8.873 13.31 9.761 21.296 0.887 3.549 1.775 7.099 1.775 11.536v210.302zM509.657 826.454c-0.887 0-2.662 0-3.549 0 0 0 0 0-0.887 0-3.549 0-6.211-0.887-8.873-0.887-21.296-4.437-36.381-23.958-36.381-46.142s15.972-39.931 36.381-45.255c0 0 5.324-0.887 7.986-0.887 157.061 0 284.839-127.778 284.839-284.839s-127.778-284.839-284.839-284.839c-149.962 0-272.416 116.243-283.951 262.655h50.579l-100.27 173.033-100.27-173.033h55.016c11.536-198.766 175.695-356.714 377.123-356.714 208.527 0 378.010 169.484 378.010 378.010 0.887 207.64-165.047 376.236-370.912 378.898z" />
<glyph unicode="&#xe903;" glyph-name="sceau" horiz-adv-x="1011" d="M505.494 760.4c-172.2 0-312.4-140.2-312.4-312.4s140.2-312.4 312.4-312.4c172.2 0 312.4 140.2 312.4 312.4s-140.2 312.4-312.4 312.4zM429.694 278.4l-35 36-113.8 114.8 35 36 113.8-114.8 265.4 267.4 35-35-300.4-304.4zM892.894 344.2c9.2 34.8 53.6 66.2 53.6 103.8s-44.2 69-53.6 103.8c-9.6 36 12.8 85.2-5.4 116.8-18.4 32-72.4 37-98.4 63s-31 80-63 98.4c-31.4 18.2-80.8-4.2-116.8 5.4-34.8 9.2-66.2 53.6-103.8 53.6s-69-44.2-103.8-53.6c-36-9.6-85.2 12.8-116.8-5.4-32-18.4-37-72.4-63-98.4s-80-31-98.4-63c-18.2-31.4 4.2-80.8-5.4-116.8-9.2-34.8-53.6-66.2-53.6-103.8s44.2-69 53.6-103.8c9.6-36-12.8-85.2 5.4-116.8 18.4-32 72.4-37 98.4-63s31-80 63-98.4c31.4-18.2 80.8 4.2 116.8-5.4 34.8-9.2 66.2-53.6 103.8-53.6s69 44.2 103.8 53.6c36 9.6 85.2-12.8 116.8 5.4 32 18.4 37 72.4 63 98.4s80 31 98.4 63c18.2 31.6-4.2 80.8 5.4 116.8zM505.494 123.6c-179 0-324.4 145.6-324.4 324.4s145.6 324.4 324.4 324.4 324.4-145.4 324.4-324.4c0-178.8-145.6-324.4-324.4-324.4z" />
<glyph unicode="&#xe904;" glyph-name="linkedin" d="M947.911 960h-872.533c-41.244 0-75.378-32.711-75.378-73.956v-876.089c0-40.533 34.133-73.956 75.378-73.956h872.533c41.956 0 76.089 33.422 76.089 73.956v876.089c0 41.244-34.133 73.956-76.089 73.956zM303.644 87.467h-152.178v488.533h152.178v-488.533zM227.556 642.844c-48.356 0-88.178 39.822-88.178 88.178s39.111 88.178 88.178 88.178c48.356 0 88.178-39.111 88.178-88.178 0-48.356-39.111-88.178-88.178-88.178zM872.533 87.467h-151.467v237.511c0 56.889-0.711 129.422-78.933 129.422-78.933 0-91.022-61.867-91.022-125.156v-241.778h-152.178v488.533h145.778v-66.844h2.133c19.911 38.4 69.689 78.933 143.644 78.933 153.6 0 182.044-100.978 182.044-232.533v-268.089z" />
<glyph unicode="&#xe905;" glyph-name="transmettre" horiz-adv-x="1163" d="M546.904 927.969h-299.295l-210.29-188.979h509.585zM606.137 927.969h299.295l210.603-188.979h-509.898zM36.379 689.786v-720.815h1078.089v720.815h-1078.089zM805.458 279.862l-124.732-124.732c-10.656-10.656-28.206-10.656-38.862 0s-10.656 28.519 0 39.175l78.036 78.349h-377.331c-0.94 0-2.194 0-2.194 0.94v51.711c0 0.94 1.253 0.627 2.194 0.627h377.331l-78.036 78.663c-10.656 10.656-10.656 28.519 0 39.175s28.206 10.969 38.862 0l124.732-124.732c5.327-5.327 8.148-12.536 7.835-19.744 0.313-6.582-2.508-13.79-7.835-19.43z" />
<glyph unicode="&#xe906;" glyph-name="contacter" horiz-adv-x="1270" d="M38.759-32h749.933c0 129.32-65.588 268.85-164.899 336.294-56.307-55.379-130.867-85.698-210.067-85.698s-153.452 30.319-210.067 85.698c-99.31-67.445-164.899-206.974-164.899-336.294zM562.536 454.652v207.593c-52.595 34.341-91.267 55.688-147.574 55.688-124.37 0-225.536-100.857-225.536-224.917s100.548-227.083 224.608-227.083c112.613 0 204.808 83.532 221.205 188.721h-72.704zM1229.864 492.086h-302.262l-158.402-143.86v143.86h-173.561v435.914h634.225z" />
<glyph unicode="&#xe907;" glyph-name="notice" horiz-adv-x="1258" d="M919.7-32h-581.452c-0.929 0-1.549 0.62-1.549 1.549v48.945c0 0.929 0.62 1.549 1.549 1.549h581.452c0.929 0 1.549-0.62 1.549-1.549v-48.945c0-0.929-0.929-1.549-1.549-1.549zM776.892 43.586h-295.837l46.157 66.912h203.524zM1162.565 928h-1067.183c-30.978 0-56.070-23.233-56.070-52.353v-681.82c0-29.119 25.092-52.662 56.070-52.662h1067.183c30.978 0 56.999 23.853 56.999 52.662v681.82c0 29.119-26.021 52.353-56.999 52.353zM1058.48 351.814h-858.083v55.76h858.083v-55.76zM1058.48 506.702h-858.083v55.76h858.083v-55.76zM1058.48 661.592h-858.083v58.858h858.083v-58.858z" />
<glyph unicode="&#xe908;" glyph-name="enlarge" d="M992 928h-390l150-150-180-180 90-90 180 180 150-150zM992-32v390l-150-150-180 180-90-90 180-180-150-150zM32-32h390l-150 150 180 180-90 90-180-180-150 150zM32 928v-390l150 150 180-180 90 90-180 180 150 150z" />
<glyph unicode="&#xe909;" glyph-name="map" d="M34.133 746.667l298.667 119.467v-716.8l-298.667-119.467zM392.533 896l298.667-179.2v-686.933l-298.667 149.333zM750.933 716.8l238.933 179.2v-716.8l-238.933-179.2z" />
<glyph unicode="&#xe90a;" glyph-name="bullet" horiz-adv-x="878" d="M804.595 448c0-201.905-163.809-365.715-365.715-365.715s-365.715 163.809-365.715 365.715 163.809 365.715 365.715 365.715 365.715-163.809 365.715-365.715z" />
<glyph unicode="&#xe90b;" glyph-name="play" d="M512 928c-265.097 0-480-214.903-480-480s214.903-480 480-480 480 214.903 480 480-214.903 480-480 480zM512 58c-215.391 0-390 174.609-390 390s174.609 390 390 390 390-174.609 390-390-174.609-390-390-390zM392 658l360-210-360-210z" />
<glyph unicode="&#xe90c;" glyph-name="download-doc" d="M357.911 759.298v184.702h-2.073c-0.004 0-0.009 0-0.014 0-8.022 0-15.285-3.25-20.544-8.506l-186.775-186.775c-5.255-5.258-8.506-12.522-8.506-20.543 0-0.005 0-0.010 0-0.014v0.001-2.073h184.721c18.324 0.033 33.167 14.884 33.189 33.207v0.002zM791.659 944h-375.623v-184.702c-0.066-50.405-40.909-91.249-91.308-91.314h-184.728v-624.669c0.055-50.409 40.905-91.259 91.31-91.314h560.349c0.012 0 0.025 0 0.039 0 50.41 0 91.276 40.866 91.276 91.276 0 0.014 0 0.027 0 0.041v-0.002 809.371c0 0.012 0 0.025 0 0.039 0 50.41-40.866 91.276-91.276 91.276-0.014 0-0.027 0-0.041 0h0.002zM366.416 437.421c5.259 5.257 12.523 8.51 20.547 8.51s15.288-3.252 20.547-8.51l74.904-74.904v210.006c0 16.051 13.011 29.063 29.063 29.063s29.063-13.011 29.063-29.063v0-210.006l74.904 74.904c5.26 5.262 12.529 8.518 20.557 8.518 16.052 0 29.065-13.013 29.065-29.065 0-8.023-3.251-15.288-8.509-20.547l-124.523-124.523c-5.259-5.257-12.523-8.51-20.547-8.51s-15.288 3.252-20.547 8.51l-124.523 124.523c-5.257 5.259-8.509 12.523-8.509 20.547s3.252 15.288 8.509 20.547v0zM636 138.775h-249.027c-16.051 0-29.063 13.011-29.063 29.063s13.011 29.063 29.063 29.063v0h249.027c16.051 0 29.063-13.011 29.063-29.063s-13.011-29.063-29.063-29.063v0z" />
<glyph unicode="&#xe90d;" glyph-name="calendar-add" d="M709.064 752.869c35.71 0 64.678 28.786 64.678 64.313v0 0 67.957c0.911 35.71-27.328 65.406-63.219 66.135-35.71 0.911-65.406-27.328-66.135-63.219v0 0-70.69c0-35.527 28.968-64.495 64.678-64.495v0 0zM249.399 752.869c35.71 0 64.678 28.786 64.678 64.313v0 0 67.957c0.911 35.71-27.328 65.406-63.219 66.135-35.71 0.911-65.406-27.328-66.135-63.219v0 0-70.69c0-35.527 28.786-64.495 64.313-64.495v0c0.183 0 0.364 0 0.364 0zM126.785 461.729h116.055c5.648 0 10.385-4.555 10.385-10.385v-116.055c0-5.648-4.555-10.385-10.385-10.385h-116.055c-5.648 0-10.385 4.555-10.385 10.385v116.055c0 5.83 4.737 10.385 10.385 10.385zM126.785 279.722h116.055c5.648 0 10.385-4.555 10.385-10.385v-116.055c0-5.648-4.555-10.385-10.385-10.385h-116.055c-5.648 0-10.385 4.555-10.385 10.385v116.055c0 5.83 4.737 10.385 10.385 10.385zM314.258 643.737h116.055c5.648 0 10.385-4.555 10.385-10.385v-116.055c0-5.648-4.555-10.385-10.385-10.385h-116.055c-5.648 0-10.385 4.555-10.385 10.385v116.055c0.183 5.83 4.737 10.385 10.385 10.385zM317.72 461.729h116.055c5.648 0 10.385-4.555 10.385-10.385v-116.055c0-5.648-4.555-10.385-10.385-10.385h-116.055c-5.648 0-10.385 4.555-10.385 10.385v116.055c0 5.83 4.555 10.385 10.385 10.385zM317.72 279.722h116.055c5.648 0 10.385-4.555 10.385-10.385v-116.055c0-5.648-4.555-10.385-10.385-10.385h-116.055c-5.648 0-10.385 4.555-10.385 10.385v116.055c0 5.83 4.555 10.385 10.385 10.385zM494.445 643.737h116.055c5.648 0 10.385-4.555 10.385-10.385v-116.055c0-5.648-4.555-10.385-10.385-10.385h-116.055c-5.648 0-10.385 4.555-10.385 10.385v116.055c0.183 5.83 4.737 10.385 10.385 10.385zM693.76 643.737h116.055c5.648 0 10.385-4.555 10.385-10.385v-116.055c0-5.648-4.555-10.385-10.385-10.385h-116.055c-5.648 0-10.385 4.555-10.385 10.385v116.055c0 5.83 4.737 10.385 10.385 10.385zM726.19 359.703h51.013c3.462 0 6.376-2.733 6.376-6.195v-297.334c0-3.462-2.915-6.195-6.376-6.195h-51.013c-3.462 0-6.376 2.733-6.376 6.195v297.516c0 3.279 2.915 6.012 6.376 6.012zM603.029 236.725h297.334c3.462 0 6.195-2.915 6.195-6.376v-51.013c0-3.462-2.733-6.376-6.195-6.376h-297.334c-3.462 0-6.195 2.915-6.195 6.376v51.013c0 3.643 2.915 6.376 6.195 6.376zM19.294 683.819h36.438v-608.514h-30.972c-3.097 0-5.466 2.369-5.466 5.466v0 603.048zM937.53 819.368v-134.639c0-3.097-2.55-5.648-5.466-5.648v0h-907.122c-3.097 0-5.648 2.55-5.648 5.466v0 134.82c0 3.097 2.55 5.648 5.466 5.648v0h120.245c3.097 0 5.466-2.55 5.466-5.648v-0.183c0-1.64-0.183-3.462-0.183-5.102 0-55.021 44.090-99.658 98.382-99.658s98.382 44.636 98.382 99.658c0 1.822 0 3.462-0.183 5.102-0.183 3.097 2.186 5.648 5.283 5.83h251.968c3.097 0 5.648-2.55 5.648-5.648 0-0.183 0-0.183 0-0.364 0-1.64-0.183-3.462-0.183-5.102 0-55.021 44.090-99.658 98.382-99.658s98.382 44.636 98.382 99.658c0 1.822 0 3.462-0.183 5.102-0.183 3.097 2.186 5.648 5.283 5.83 0.183 0 0.183 0 0.364 0h120.245c2.915 0.183 5.466-2.369 5.466-5.466v0zM937.53 685.641h-36.438v-193.303c12.571-6.559 24.778-14.028 36.438-22.045v215.348zM19.294 108.099v-30.972c0-3.097 2.369-5.466 5.466-5.466h431.607c-5.283 11.842-10.021 23.866-13.847 36.438h-423.227zM751.696 470.293c-146.663 0-265.45-118.788-265.45-265.45s118.788-265.45 265.45-265.45 265.45 118.788 265.45 265.45-118.788 265.45-265.45 265.45zM751.696-13.239c-120.428 0-218.081 97.653-218.081 218.081s97.653 218.081 218.081 218.081 218.081-97.653 218.081-218.081-97.653-218.081-218.081-218.081z" />
<glyph unicode="&#xe90e;" glyph-name="tutoriel" horiz-adv-x="1248" d="M918.4-32h-579.2c0 0 0 0 0 0v48c0 0 0 0 0 0h582.4c0 0 0 0 0 0l-3.2-48c3.2 0 3.2 0 0 0zM777.6 44.8h-297.6l44.8 67.2h204.8l48-67.2zM1164.8 928h-1072c-28.8 0-54.4-25.6-54.4-54.4v-678.4c0-28.8 25.6-54.4 54.4-54.4h1072c28.8 0 54.4 25.6 54.4 54.4v678.4c0 28.8-25.6 54.4-54.4 54.4zM832 512l-316.8-172.8c-16-9.6-35.2 3.2-35.2 22.4v345.6c0 19.2 19.2 28.8 35.2 22.4l316.8-172.8c19.2-9.6 19.2-35.2 0-44.8z" />
<glyph unicode="&#xe90f;" glyph-name="manager" horiz-adv-x="819" d="M96.276 63.97h626.688c50.918 0 78.336 27.418 78.336 78.336v626.688c0 50.918-27.418 78.336-78.336 78.336h-626.688c-50.918 0-78.336-27.418-78.336-78.336v-626.688c0-50.918 27.418-78.336 78.336-78.336v0zM174.612 220.642h470.016v43.085c0 113.587-78.336 152.755-235.008 152.755s-235.008-39.168-235.008-152.755v-43.085zM96.276 768.994h626.688v-626.688h-626.688v626.688zM409.62 455.65c70.502 0 117.504 47.002 117.504 117.504s-47.002 117.504-117.504 117.504c-70.502 0-117.504-47.002-117.504-117.504s47.002-117.504 117.504-117.504v0z" />
<glyph unicode="&#xe910;" glyph-name="opening" horiz-adv-x="819" d="M721.631 723.751c13.41 47.807 86.142 27.431 72.722-20.406l-36.526-129.509c-5.534-19.738-25.757-31.369-45.514-26.434l-130.447 33.081c-48.194 12.017-29.937 85.359 18.326 73.322l42.728-10.846c-57.996 73.506-145.512 116.040-239.395 116.040-168.27 0-304.619-136.349-304.619-304.609s136.349-304.609 304.619-304.609c153.63 0 283.41 114.541 302.278 266.758h-59.322c-49.781 0-49.781 75.702 0 75.702h99.505c20.89 0 37.842-16.952 37.842-37.851 0-210.010-170.292-380.312-380.302-380.312s-380.312 170.301-380.312 380.312c0 210.010 170.301 380.312 380.312 380.312 120.946 0 234.122-57.454 305.838-154.453l12.269 43.502zM413.451 683.558v-232.913l182.328-141.303-46.134-59.709-211.887 164.206v269.719h75.693z" />
<glyph unicode="&#xe911;" glyph-name="text" d="M894.17 378.515h-764.344c-19.11 0-34.745-15.635-34.745-34.745v-69.485c0-19.176 15.635-34.745 34.745-34.745h764.344c19.176 0 34.745 15.564 34.745 34.745v69.485c0 19.11-15.564 34.745-34.745 34.745zM894.17 656.455h-764.344c-19.11 0-34.745-15.635-34.745-34.745v-69.485c0-19.176 15.635-34.745 34.745-34.745h764.344c19.176 0 34.745 15.564 34.745 34.745v69.485c0 19.11-15.564 34.745-34.745 34.745zM546.745 100.57h-416.915c-19.11 0-34.745-15.635-34.745-34.745v-69.485c0-19.176 15.635-34.745 34.745-34.745h416.915c19.176 0 34.745 15.564 34.745 34.745v69.485c0 19.11-15.564 34.745-34.745 34.745zM894.17 934.4h-764.344c-19.11 0-34.745-15.635-34.745-34.745v-69.485c0-19.176 15.635-34.745 34.745-34.745h764.344c19.176 0 34.745 15.564 34.745 34.745v69.485c0 19.11-15.564 34.745-34.745 34.745z" />
<glyph unicode="&#xe912;" glyph-name="localisation" d="M510.14-32c0 0-298.14 421.86-298.14 601.86 0 354.39 298.14 358.14 298.14 358.14s301.86-3.75 301.86-356.25c0-185.61-301.86-603.75-301.86-603.75zM512 748c-66.27 0-120-53.73-120-120s53.73-120 120-120 120 53.73 120 120-53.73 120-120 120z" />
<glyph unicode="&#xe913;" glyph-name="flag" horiz-adv-x="1061" d="M182.857 813.714c0-26.286-14.286-49.714-36.571-62.857v-723.429c0-9.714-8.571-18.286-18.286-18.286h-36.571c-9.714 0-18.286 8.571-18.286 18.286v723.429c-22.286 13.143-36.571 36.571-36.571 62.857 0 40.571 32.571 73.143 73.143 73.143s73.143-32.571 73.143-73.143zM1024 777.143v-436c0-21.143-13.143-29.143-29.714-37.714-64.571-34.857-136-66.286-210.857-66.286-105.143 0-155.429 80-280 80-90.857 0-186.286-41.143-265.143-83.429-6.286-3.429-12-5.143-18.857-5.143-20 0-36.571 16.571-36.571 36.571v424c0 13.714 6.857 23.429 17.714 31.429 13.714 9.143 30.286 17.143 45.143 24.571 72 36.571 159.429 68.571 240.571 68.571 89.714 0 160-29.714 239.429-66.857 16-8 32.571-10.857 50.286-10.857 89.714 0 186.286 77.714 211.429 77.714 20 0 36.571-16.571 36.571-36.571z" />
<glyph unicode="&#xe914;" glyph-name="envoyer" horiz-adv-x="1025" d="M972.607 917.592c11.143-7.959 16.449-20.694 14.327-33.959l-135.837-815.020c-1.592-10.082-7.959-18.571-16.98-23.877-4.776-2.653-10.613-4.245-16.449-4.245-4.245 0-8.49 1.061-12.734 2.653l-240.367 98.163-128.408-156.53c-6.367-7.959-15.919-12.204-26-12.204-3.714 0-7.959 0.53-11.673 2.123-13.266 4.776-22.286 17.51-22.286 31.837v185.184l458.449 561.919-567.224-490.816-209.592 85.959c-12.204 4.776-20.163 15.919-21.224 29.184-0.53 12.734 5.837 24.939 16.98 31.306l882.939 509.387c5.306 3.184 11.143 4.776 16.98 4.776 6.898 0 13.796-2.123 19.102-5.837z" />
<glyph unicode="&#xe915;" glyph-name="user-circle" d="M512 109.152q74.81 0 157.322 44.006t124.318 107.816q-2.2 61.608-99.014 103.414t-182.626 41.806-182.626-40.706-99.014-104.514q41.806-63.81 124.318-107.816t157.322-44.006zM512 775.846q-57.208 0-99.014-41.806t-41.806-99.014 41.806-99.014 99.014-41.806 99.014 41.806 41.806 99.014-41.806 99.014-99.014 41.806zM512 916.666q193.628 0 331.148-137.52t137.52-331.148-137.52-331.148-331.148-137.52-331.148 137.52-137.52 331.148 137.52 331.148 331.148 137.52z" />
</font>
</defs>
</svg>
