<?xml version="1.0" encoding="utf-8"?>
<!-- Generator: Adobe Illustrator 24.0.3, SVG Export Plug-In . SVG Version: 6.00 Build 0)  -->
<svg version="1.1" id="Layer_1" xmlns="http://www.w3.org/2000/svg" xmlns:xlink="http://www.w3.org/1999/xlink" x="0px" y="0px"
	 viewBox="55 0 290 155.91" style="enable-background:new 0 0 368.5 155.91;" xml:space="preserve">
<style type="text/css">
	.st0{fill:#2DAAE1;}
	.st1{fill:none;}
	.st2{fill:#164194;}
	.st3{fill:#FFED00;}
</style>
<path class="st0" d="M177.74,84.38L177.74,84.38C177.92,84.26,177.92,84.27,177.74,84.38z"/>
<path class="st1" d="M177.88,84.29c-0.04,0.02-0.07,0.05-0.11,0.07c-0.01,0.01-0.02,0.02-0.04,0.02"/>
<path class="st0" d="M177.74,84.38L177.74,84.38C177.92,84.26,177.92,84.27,177.74,84.38z"/>
<path class="st1" d="M177.88,84.29c-0.04,0.02-0.07,0.05-0.11,0.07c-0.01,0.01-0.02,0.02-0.04,0.02"/>
<g>
	<g>
		<path class="st0" d="M234.25,61.1c0.4,1.05,1.44,1.23,2.14,0.45c3.31-3.67,4.77-6.97,7.03-11.04c0.88-1.58,0.97-1.79,1.93-3.32
			c0.39-0.62,1.49-2.25,2.1-2.7c0.92-0.69,2.3-1.25,3.39-1.32c1.01-0.06,2.13-0.47,2.78,0.69c1,1.75-2.89,6.01-3.84,7.73
			c-4.54,8.12-8.65,15.93-13.75,23.71c-0.85,1.29-1.85,3.62-2.33,5.08c-0.2,0.61-0.49,1.19-0.92,1.69c-1.27,1.49-3.58,1.18-4.33-0.6
			c-0.71-1.7-0.65-2.98,0.37-4.98c3.89-7.63,2.97-7.46,2.21-10.72c-1.08-4.66-1.47-7.43-2.72-12.05c-0.8-2.94-1.07-4.34-1-5.79
			c0.08-1.68,1.97-3.36,2.9-3.19c1.14,0.22,1.62,1.22,1.98,2.87c0.81,3.67,0.34,3.98,1.1,8.69C233.4,56.94,233.87,60.1,234.25,61.1z
			"/>
		<g>
			<path class="st0" d="M265.15,65.95c0.41-0.3,0.83-0.61,1.23-0.92C266.2,65.15,265.73,65.51,265.15,65.95z M265.15,65.95
				c-0.19,0.14-0.38,0.29-0.58,0.43C264.78,66.23,264.97,66.09,265.15,65.95z"/>
			<path class="st0" d="M314.75,57.94c-0.19-0.66-1.06-0.79-1.78-0.8c-2.38-0.03-4.03,0.62-6,1.95c-1.45,0.99-1.88,1.31-3.31,2.34
				c-0.39,0.27-1.65,1.4-2.09,1.78c-0.48,0.43-1.28,0.14-1.36-0.5c-0.14-1.09,0.28-1.99,0.42-2.7c0.2-1.01,0.88-2.05,0.05-2.63
				c-1.17-0.82-2.83-0.64-4.11,0.63c-1.03,1.02-0.75,1.94-0.97,3.54c-0.34,2.37-0.74,4.78-1.7,6.97c-1.1,2.51-2.08,5.03-4.3,6.73
				c-0.74,0.57-2.86,2.55-3.98,0.51c-0.45-0.83,0.91-4.53,1.13-5.12c1.03-2.75,1.21-2.98,2.15-5.76c0.59-1.76-0.17-3.11-1.95-4.04
				c-1.47-0.76-2.76-0.45-3.93,1c-0.52,0.64-4.66,11.75-7.48,15.45c-0.47,0.62-1.19,1.78-3,1.06c-1.22-0.48-1.15-2.01-1.1-2.62
				c0.15-1.56,0.84-3.63,1.39-5.1c0.86-2.27,1.7-4.41,2.12-6.59c0.46-2.4-1.85-2.8-4.14-1.93c-0.43,0.17-0.84,0.41-1.24,0.67
				c-1.07,0.66-2.1,1.43-3.14,2.22c-0.01,0.01-0.03,0.02-0.04,0.03c-0.59,0.45-1.19,0.91-1.81,1.35c-0.26,0.2-0.53,0.39-0.8,0.57
				c-0.22,0.15-0.43,0.31-0.64,0.44c-0.79,0.53-1.48,0.88-1.71,0.76c-0.1-0.04-0.13-0.15-0.11-0.25c0.08-0.37,0.26-1.26,0.33-1.47
				c0.96-3.02,0.4-5.41-1.64-7.04c-1.97-1.56-4.06-2.07-6.21-0.74c-0.41,0.25-0.79,0.54-1.18,0.83c-5.05,3.83-7.68,9.02-8.9,15.01
				c-0.67,3.22,0.71,5.59,3.08,7.52c1.42,1.15,3.14,1.51,5.01,1.12c2.02-0.43,3.42-1.64,4.5-3.28c1.23-1.89,2.5-4.54,3.25-6.64
				c0.54-1.49,2.88-3.82,4.57-4.66l0.01-0.02c0.82-0.39,1.69-0.82,2.43-0.87c0.53-0.04,0.99,0.31,0.83,0.82
				c-0.67,2.11-1.95,6.31-2.32,8.36c-0.29,1.59,0.24,3.96,1.6,4.9c2.8,1.94,5.21,2.86,8.6,1.05c1.41-0.75,2.46-1.59,3.63-2.65
				c0.89-0.81,1.32-1.61,2.16-2.39c0.23-0.21,0.7-0.61,0.94-0.41c0.23,0.18,0.15,0.75,0.2,1.04c0.68,3.56,2.7,4.09,5.52,1.78
				c0.92-0.75,1.5-1.6,2.29-2.47c0.16-0.18,2.19-2.61,2.5-2.39c0.22,0.16-0.74,2.62-0.81,2.84c-0.28,0.86-0.57,1.45-0.82,2.31
				c-0.21,0.75-0.04,1.6,0.31,1.87c1.09,0.86,3.62,0.77,4.32-0.27c1.18-1.75,1.26-3.57,2-5.58c1.83-4.99,4.17-10.4,9.16-13.46
				c2.59-1.59,4.63-2.67,7.42-3.86C314.63,58.93,314.97,58.68,314.75,57.94z M252.55,77.34c-0.63,1.12-5.88,2.75-4.44-2.45
				c0.56-2.03,3.15-8.31,6.18-11.32c0,0,2.12-2.82,2.88,1.38C257.52,66.84,256.13,70.99,252.55,77.34z"/>
		</g>
		<path class="st0" d="M196.78,54.22c-3.2,0.08-3.55-4.86-0.84-6.15c2.96-1.41,4.27-0.23,4.3,2.24
			C200.27,52.41,199.73,53.77,196.78,54.22z"/>
		<path class="st0" d="M209.81,50.18c-3.2,0.08-3.55-4.86-0.84-6.15c2.96-1.41,4.27-0.23,4.3,2.24
			C213.3,48.36,212.75,49.73,209.81,50.18z"/>
		<g>
			<path class="st0" d="M217.54,50.56 M217.35,50.41"/>
			<g>
				<path class="st0" d="M217.86,51.4c0,0.38-0.09,0.76-0.17,1.12c-0.9,4.54-2.13,9-3.93,13.26c-0.9,2.13-1.98,4.19-3.29,6.1
					c-0.67,0.97-1.46,1.8-2.23,2.66c-0.76,0.88-1.69,1.61-2.65,2.26c-1.94,1.26-4.33,2.06-6.68,1.66c-2.35-0.36-4.42-1.71-6.06-3.35
					c-1.64-1.66-3-3.57-4.14-5.58c-0.57-1.01-1.12-2.03-1.61-3.09l-0.72-1.57c-0.25-0.5-0.48-1.14-0.47-1.75
					c-0.01-0.62,0.11-1.23,0.42-1.81c0.34-0.57,0.86-0.91,1.29-1.26c0.42-0.36,0.92-0.78,1.52-0.98c0.59-0.22,1.28-0.21,1.87,0.01
					c0.59,0.22,1.13,0.61,1.49,1.14c0.36,0.54,0.52,1.16,0.57,1.77c0.02,0.32,0,0.62-0.05,0.93c-0.04,0.31-0.18,0.62-0.17,0.8
					c0.01,0.5,0.16,1.07,0.3,1.61c0.6,2.21,1.48,4.33,3.15,5.88c0.79,0.82,1.66,1.53,2.7,1.89c1.03,0.37,2.16,0.4,3.24,0.16
					c2.17-0.51,4.09-1.87,5.58-3.58c1.52-1.7,2.8-3.62,3.84-5.66c1.08-2.03,1.83-4.2,2.55-6.4c0.71-2.2,1.33-4.41,1.92-6.65
					c0.02-0.04,0.02-0.05,0.03-0.07l0.02-0.07c0.02-0.04,0.03-0.07,0.07-0.12c0,0-0.01,0,0-0.01l0.01-0.02v-0.01
					c0.17-0.23,0.41-0.48,0.74-0.5c0.34,0,0.57,0.25,0.72,0.51c0.06,0.1,0.07,0.18,0.11,0.28C217.85,51.14,217.86,51.27,217.86,51.4
					z"/>
			</g>
		</g>
		<g>
			<path class="st2" d="M186.39,86.38h20.33v5.24H194v3.9h11.81v5.01H194v4.84h13.1v5.56h-20.7V86.38z"/>
			<path class="st2" d="M229.4,110.93h-6.36v-2.88c-0.95,1.18-1.91,2.03-2.87,2.53c-0.97,0.5-2.15,0.75-3.56,0.75
				c-1.88,0-3.35-0.56-4.41-1.68c-1.07-1.12-1.6-2.85-1.6-5.18V93.15h6.85v9.78c0,1.12,0.21,1.91,0.62,2.38
				c0.41,0.47,0.99,0.7,1.74,0.7c0.81,0,1.48-0.31,2-0.94c0.52-0.63,0.78-1.75,0.78-3.37v-8.56h6.82V110.93z"/>
			<path class="st2" d="M233.53,93.15h6.38v2.91c0.61-1.26,1.25-2.13,1.9-2.6c0.65-0.47,1.46-0.71,2.42-0.71c1,0,2.1,0.31,3.3,0.94
				l-2.11,4.86c-0.8-0.33-1.44-0.5-1.91-0.5c-0.89,0-1.59,0.37-2.08,1.11c-0.7,1.04-1.05,2.98-1.05,5.83v5.96h-6.85V93.15z"/>
			<path class="st2" d="M247.75,102.09c0-2.71,0.91-4.95,2.75-6.71c1.83-1.76,4.3-2.64,7.42-2.64c3.56,0,6.25,1.03,8.07,3.1
				c1.46,1.66,2.19,3.71,2.19,6.15c0,2.74-0.91,4.98-2.72,6.72c-1.81,1.75-4.32,2.62-7.53,2.62c-2.86,0-5.17-0.73-6.93-2.18
				C248.83,107.36,247.75,105.01,247.75,102.09z M254.58,102.07c0,1.59,0.32,2.76,0.96,3.52c0.64,0.76,1.45,1.14,2.42,1.14
				c0.98,0,1.79-0.37,2.42-1.12c0.63-0.75,0.95-1.95,0.95-3.6c0-1.54-0.32-2.69-0.95-3.44c-0.64-0.75-1.42-1.13-2.36-1.13
				c-0.99,0-1.81,0.38-2.46,1.15C254.9,99.35,254.58,100.51,254.58,102.07z"/>
			<path class="st2" d="M271.43,117.7V93.15h6.38v2.63c0.88-1.11,1.69-1.85,2.43-2.24c0.99-0.52,2.09-0.79,3.3-0.79
				c2.38,0,4.22,0.91,5.52,2.73c1.3,1.82,1.95,4.07,1.95,6.75c0,2.96-0.71,5.22-2.13,6.77c-1.42,1.56-3.21,2.34-5.38,2.34
				c-1.05,0-2.01-0.18-2.87-0.54s-1.64-0.89-2.32-1.59v8.49H271.43z M278.26,102.09c0,1.41,0.3,2.45,0.89,3.13
				c0.59,0.68,1.34,1.02,2.24,1.02c0.79,0,1.46-0.33,1.99-0.98c0.54-0.65,0.8-1.76,0.8-3.32c0-1.44-0.28-2.5-0.84-3.17
				c-0.56-0.68-1.24-1.01-2.04-1.01c-0.87,0-1.6,0.34-2.18,1.02C278.55,99.46,278.26,100.56,278.26,102.09z"/>
			<path class="st2" d="M313.95,103.73h-13.67c0.12,1.09,0.42,1.91,0.89,2.45c0.66,0.77,1.52,1.16,2.58,1.16
				c0.67,0,1.31-0.17,1.91-0.5c0.37-0.21,0.76-0.59,1.19-1.12l6.72,0.62c-1.03,1.79-2.27,3.07-3.72,3.84
				c-1.45,0.78-3.53,1.16-6.25,1.16c-2.36,0-4.21-0.33-5.56-1c-1.35-0.66-2.47-1.72-3.36-3.17c-0.89-1.45-1.33-3.15-1.33-5.1
				c0-2.78,0.89-5.03,2.67-6.75c1.78-1.72,4.24-2.58,7.38-2.58c2.55,0,4.56,0.39,6.03,1.16c1.47,0.77,2.6,1.89,3.37,3.35
				c0.77,1.46,1.16,3.37,1.16,5.71V103.73z M307.01,100.47c-0.13-1.32-0.49-2.26-1.06-2.83c-0.58-0.57-1.33-0.85-2.27-0.85
				c-1.08,0-1.95,0.43-2.6,1.29c-0.41,0.54-0.68,1.33-0.79,2.39H307.01z"/>
		</g>
	</g>
	<g>
		<g>
			<rect x="58.8" y="42.98" class="st2" width="102.21" height="68.14"/>
			<path class="st2" d="M109.9,77.05"/>
		</g>
		<g>
			<polygon class="st3" points="107.72,57.82 109.88,56.25 112.03,57.82 111.21,55.28 113.4,53.71 110.7,53.71 109.88,51.13 
				109.05,53.71 106.35,53.71 108.54,55.28 			"/>
			<polygon class="st3" points="96.56,60.82 98.72,59.25 100.87,60.82 100.05,58.28 102.24,56.7 99.54,56.7 98.72,54.12 
				97.89,56.71 95.19,56.7 97.38,58.28 			"/>
			<polygon class="st3" points="90.55,62.31 89.72,64.89 87.03,64.89 89.21,66.46 88.39,69.01 90.55,67.43 92.71,69.01 91.89,66.46 
				94.08,64.89 91.38,64.89 			"/>
			<polygon class="st3" points="87.56,78.58 89.71,80.15 88.89,77.61 91.08,76.03 88.38,76.03 87.56,73.46 86.73,76.04 84.03,76.03 
				86.22,77.61 85.4,80.15 			"/>
			<polygon class="st3" points="91.38,87.22 90.55,84.64 89.72,87.22 87.03,87.22 89.21,88.79 88.39,91.33 90.55,89.76 92.71,91.33 
				91.89,88.79 94.08,87.22 			"/>
			<polygon class="st3" points="99.56,95.4 98.73,92.82 97.91,95.4 95.21,95.4 97.4,96.97 96.58,99.52 98.73,97.94 100.89,99.52 
				100.07,96.97 102.26,95.4 			"/>
			<polygon class="st3" points="110.71,98.36 109.88,95.78 109.05,98.36 106.35,98.36 108.54,99.94 107.72,102.48 109.88,100.91 
				112.04,102.48 111.22,99.94 113.41,98.36 			"/>
			<polygon class="st3" points="121.85,95.4 121.03,92.82 120.2,95.4 117.5,95.4 119.69,96.97 118.87,99.52 121.03,97.94 
				123.18,99.52 122.36,96.97 124.55,95.4 			"/>
			<polygon class="st3" points="130.04,87.22 129.21,84.64 128.38,87.22 125.68,87.22 127.87,88.79 127.05,91.33 129.21,89.76 
				131.37,91.33 130.54,88.79 132.73,87.22 			"/>
			<polygon class="st3" points="135.7,76 133,76 132.17,73.42 131.35,76.01 128.65,76 130.84,77.58 130.02,80.12 132.17,78.55 
				134.33,80.12 133.51,77.58 			"/>
			<polygon class="st3" points="127.05,68.97 129.21,67.4 131.37,68.97 130.54,66.43 132.73,64.86 130.04,64.86 129.21,62.28 
				128.38,64.86 125.68,64.86 127.87,66.43 			"/>
			<polygon class="st3" points="121.06,54.13 120.23,56.71 117.53,56.7 119.72,58.28 118.9,60.83 121.06,59.25 123.22,60.83 
				122.4,58.28 124.59,56.7 121.88,56.7 			"/>
		</g>
	</g>
</g>
<rect x="0.57" y="1.02" class="st1" width="365.86" height="154.05"/>
</svg>
