<?xml version="1.0" encoding="utf-8"?>
<svg width="160" height="43" viewBox="0 0 160 43" fill="none" xmlns="http://www.w3.org/2000/svg">
<g clip-path="url(#clip0_1896:31921)">
<path d="M134.467 26.8867L136.626 40.0426L132.092 40.8133V42.6298H146.937V30.3545L142.672 30.9601L141.916 25.6206L134.467 26.8867Z" fill="#FFA190"/>
<path d="M134.467 26.8868L141.916 25.6207L140.837 17.474H137.652V14.1712H143.158L135.007 12.0244L131.714 24.9051L119.028 21.5474V29.3088H132.092V40.8134L136.626 40.0428L134.467 26.8868Z" fill="#021CA2"/>
<path d="M132.092 0.850098V14.1712H119.028V21.5473L131.714 24.9051L135.007 12.0244L143.158 14.1712H143.644V8.06111H146.937V0.850098H132.092Z" fill="#E9220F"/>
<path d="M152.875 14.1714V17.4741H146.937V23.5842H143.644V17.4741H140.837L141.917 25.6209L142.672 30.9604L146.937 30.3549V29.309H160V14.1714H152.875Z" fill="white"/>
<g opacity="0.5">
<g opacity="0.5">
<path opacity="0.5" d="M152.875 14.1714V17.4741H146.937V23.5842H143.644V17.4741H140.837L141.917 25.6209L142.672 30.9604L146.937 30.3549V29.309H160V14.1714H152.875Z" fill="#6986CA"/>
</g>
</g>
<path d="M152.875 14.1711H146.883V8.06104H143.644V14.1711H137.652V17.4739H143.644V23.584H146.883V17.4739H152.875V14.1711Z" fill="white"/>
<path d="M2.32097 12.8501C3.29263 14.1161 4.53419 14.8317 5.82974 14.8317C7.12529 14.8317 7.88102 14.1161 7.88102 12.9602C7.88102 10.0427 0.593574 10.7033 0.593574 5.30878C0.647555 2.77667 2.69884 0.629883 5.72178 0.629883C8.09695 0.629883 9.9323 1.7308 11.2818 3.38218L8.90666 5.52897C7.98899 4.31796 6.90936 3.49227 5.72178 3.49227C4.58818 3.49227 3.88642 4.20786 3.88642 5.19869C3.88642 8.11612 11.1739 7.40052 11.1739 12.9051C11.1199 15.9326 8.7987 17.7491 5.88372 17.7491C3.18467 17.7491 1.40329 16.7583 -0.0541992 15.0519L2.32097 12.8501Z" fill="black"/>
<path d="M14.791 1.07031H24.0758V3.87765H18.0299V7.67582H23.1581V10.4832H18.0299V14.5015H24.0758V17.3088H14.791V1.07031Z" fill="black"/>
<path d="M28.0703 1.07031H32.9286C36.4374 1.07031 38.5966 2.88683 38.5966 5.91435C38.5966 7.84095 37.679 9.32719 36.0595 10.0978L41.0258 17.3088H37.1391L32.9286 10.7584H31.3092V17.3088H28.0703V1.07031ZM31.3092 3.87765V7.95105H33.1445C34.4941 7.95105 35.3038 7.23545 35.3038 5.91435C35.3038 4.70334 34.4941 3.9327 33.1445 3.9327H31.3092V3.87765Z" fill="black"/>
<path d="M44.1027 1.07031L48.7991 13.7859L53.4954 1.07031H56.9502L50.9044 17.3088H46.6938L40.6479 1.07031H44.1027Z" fill="black"/>
<path d="M62.8341 1.07031H59.5952V17.3088H62.8341V1.07031Z" fill="black"/>
<path d="M78.8127 12.4646L81.3499 14.4463C79.8924 16.483 77.5172 17.749 74.6562 17.749C69.6359 17.749 66.1812 13.7857 66.1812 9.16186C66.1812 4.53801 69.6359 0.574707 74.6562 0.574707C77.5712 0.574707 79.8924 1.89581 81.3499 3.87746L78.8127 5.91416C77.8951 4.59306 76.4916 3.71232 74.6562 3.71232C71.6333 3.71232 69.528 6.07929 69.528 9.21691C69.528 12.2995 71.6872 14.7215 74.6562 14.7215C76.4376 14.7215 77.8951 13.7857 78.8127 12.4646Z" fill="black"/>
<path d="M84.3726 1.07031H93.6573V3.87765H87.6114V7.67582H92.7396V10.4832H87.6114V14.5015H93.6573V17.3088H84.3726V1.07031Z" fill="black"/>
<path d="M98.5156 12.8499C99.4872 14.116 100.729 14.8316 102.024 14.8316C103.32 14.8316 104.076 14.116 104.076 12.96C104.076 10.0426 96.7882 10.7031 96.7882 5.30865C96.7882 2.7215 98.8395 0.574707 101.862 0.574707C104.238 0.574707 106.073 1.67562 107.422 3.327L105.047 5.47379C104.13 4.26278 103.05 3.43709 101.862 3.43709C100.729 3.43709 100.027 4.15269 100.027 5.14351C100.027 8.06095 107.315 7.34535 107.315 12.8499C107.261 15.8775 104.939 17.694 102.024 17.694C99.3253 17.694 97.5439 16.7031 96.0864 14.9967L98.5156 12.8499Z" fill="black"/>
<path d="M1.45779 25.7305H6.69396C10.2027 25.7305 12.308 27.547 12.308 30.5745C12.308 33.547 10.1487 35.4185 6.69396 35.4185H4.64267V41.969H1.40381V25.7305H1.45779ZM4.64267 28.5378V32.5562H6.80192C8.15145 32.5562 8.96116 31.8406 8.96116 30.5195C8.96116 29.3085 8.15145 28.5378 6.80192 28.5378H4.64267Z" fill="black"/>
<path d="M24.6157 25.7305H27.8546V35.5837C27.8546 39.8773 25.3715 42.4094 21.3769 42.4094C17.3823 42.4094 14.9531 39.8773 14.9531 35.5837V25.7305H18.192V35.8589C18.192 38.0607 19.3796 39.3268 21.4309 39.3268C23.4282 39.3268 24.6157 38.0607 24.6157 35.8589V25.7305Z" fill="black"/>
<path d="M32.0649 25.7305H36.5994C39.9462 25.7305 41.9435 27.3818 41.9435 30.1341C41.9435 31.4552 41.3497 32.5562 40.2701 33.3268C41.9435 34.0974 42.8612 35.4736 42.8612 37.18C42.8612 40.1525 40.594 41.969 36.9232 41.969H32.0649V25.7305ZM35.3038 28.5378V32.0607H36.6533C37.8949 32.0607 38.5967 31.4552 38.5967 30.2993C38.5967 29.1984 37.8949 28.5378 36.6533 28.5378H35.3038ZM35.3038 34.9231V39.1617H37.1392C38.6506 39.1617 39.5683 38.336 39.5683 37.0149C39.5683 35.6938 38.6506 34.9231 37.1392 34.9231H35.3038Z" fill="black"/>
<path d="M46.3701 25.7305H49.609V38.9415H55.6549V41.969H46.3701V25.7305Z" fill="black"/>
<path d="M61.9708 25.7305H58.7319V41.969H61.9708V25.7305Z" fill="black"/>
<path d="M77.8948 37.1253L80.4319 39.1069C78.9744 41.1436 76.5992 42.4097 73.7382 42.4097C68.718 42.4097 65.2632 38.4464 65.2632 33.8225C65.2632 29.1987 68.718 25.2354 73.7382 25.2354C76.6532 25.2354 78.9744 26.5565 80.4319 28.5381L77.8948 30.5748C76.9771 29.2537 75.5736 28.373 73.7382 28.373C70.7153 28.373 68.61 30.7399 68.61 33.8776C68.61 36.9601 70.7693 39.3821 73.7382 39.3821C75.5196 39.3271 76.9771 38.4464 77.8948 37.1253Z" fill="black"/>
<path d="M84.4267 37.5106C85.3984 38.7766 86.6399 39.4922 87.9355 39.4922C89.231 39.4922 89.9868 38.7766 89.9868 37.6207C89.9868 34.7032 82.6993 35.3638 82.6993 29.9693C82.6993 27.3821 84.7506 25.2354 87.7735 25.2354C90.1487 25.2354 91.9841 26.3363 93.3336 27.9876L90.9584 30.1344C90.0407 28.9234 88.9611 28.0977 87.7735 28.0977C86.6399 28.0977 85.9382 28.8133 85.9382 29.8042C85.9382 32.7216 93.2256 32.006 93.2256 37.5106C93.1716 40.5381 90.8505 42.3546 87.9355 42.3546C85.2364 42.3546 83.455 41.3638 81.9976 39.6574L84.4267 37.5106Z" fill="black"/>
<path d="M103.536 32.9415V37.125H100.567V32.9415H96.4644V29.914H100.567V25.7305H103.536V29.914H107.638V32.9415H103.536Z" fill="black"/>
</g>
<defs>
<clipPath id="clip0_1896:31921">
<rect width="160" height="42" fill="white" transform="translate(0 0.629883)"/>
</clipPath>
</defs>
</svg>
