<svg id="Calque_1" data-name="Calque 1" xmlns="http://www.w3.org/2000/svg" viewBox="0 0 863.2 476.2"><g id="Calque_2" data-name="Calque 2"><g id="Calque_1-2" data-name="Calque 1-2"><g id="Calque_2-2" data-name="Calque 2-2"><g id="Calque_1-2-2" data-name="Calque 1-2-2"><path d="M753.6,159c8.3,0,14.1,4.9,15.5,13.1H737.4c2-8.1,8.1-13.1,16.2-13.1M785,177c0-9.7-3-17.3-8.8-22.9s-13.4-8.6-22.5-8.6c-9.6,0-17.4,3.1-23.4,9.2s-9,14-9,23.5a32.81,32.81,0,0,0,8.7,23.1c5.8,6.3,14.2,9.5,25.2,9.5a45.22,45.22,0,0,0,27.3-8.6l-6.4-11.3a38.14,38.14,0,0,1-20.1,6.3c-9.8,0-16-4.5-18.1-13.3h46.9a53.53,53.53,0,0,1,.2-6.9M682.9,211.1c17.8,0,28.6-10.3,28.6-27.8v-36H695.3v36.1c0,7.9-4.7,13.1-12.4,13.1s-12.4-5.2-12.4-13.1V147.3H654.3v36.1c0,17.4,10.8,27.7,28.6,27.7m-74.7-14.8a15.86,15.86,0,0,1-12.5-5.2,19.07,19.07,0,0,1,0-25.3,17.62,17.62,0,0,1,24.8,0h0a19.2,19.2,0,0,1,0,25.4,15.69,15.69,0,0,1-12.3,5.1M625.1,155a25.1,25.1,0,0,0-19.8-9.2,29.07,29.07,0,0,0-22.1,9.5,35.15,35.15,0,0,0,0,46.3,28.73,28.73,0,0,0,22.1,9.5,25.22,25.22,0,0,0,19.7-8.9v33h16.1V147.4H625Zm-60.2-7.7H548.7v62.4h16.2Zm-.9-9.9a10.34,10.34,0,0,0,0-14.1,10.47,10.47,0,0,0-14.2,0A10,10,0,0,0,564,137.4m-28.9-14.8H519v87h16.2v-87Zm-77.3,55.8a17.68,17.68,0,0,1,4.8-12.5,16.06,16.06,0,0,1,12.3-5.3,16.48,16.48,0,0,1,12.3,5.2,17.64,17.64,0,0,1,4.8,12.8,18.23,18.23,0,0,1-4.8,12.8,17.26,17.26,0,0,1-24.5.1h0l-.1-.1a19.74,19.74,0,0,1-4.8-13m19.7-32.7a24.35,24.35,0,0,0-19,8.8V122.6H442.3v87h15.6v-7.8a24.21,24.21,0,0,0,19.5,9.2,29.89,29.89,0,0,0,22.2-9.2,33,33,0,0,0,8.9-23.3,32.7,32.7,0,0,0-8.9-23.3,28.39,28.39,0,0,0-22.1-9.5m-76.9,65.4c17.8,0,28.6-10.3,28.6-27.8v-36H413.1v36.1c0,7.9-4.7,13.1-12.4,13.1s-12.4-5.2-12.4-13.1V147.3H372.1v36.1c-.1,17.4,10.8,27.7,28.5,27.7M329,196.3a16.48,16.48,0,0,1-12.3-5.2,19.2,19.2,0,0,1,0-25.4,17.75,17.75,0,0,1,24.9,0h0a19.2,19.2,0,0,1,0,25.4,16.06,16.06,0,0,1-12.6,5.2m2.9-50.7a25.1,25.1,0,0,0-19.8,9.2v-7.7h-16v88h16.2V202.2a25.79,25.79,0,0,0,19.6,8.7,28.71,28.71,0,0,0,22-9.5A35.13,35.13,0,0,0,354,155a29.18,29.18,0,0,0-22.1-9.4M225.5,159c8.3,0,14.1,4.9,15.5,13.1H209.3c2-8.1,8.1-13.1,16.2-13.1m31.2,18c0-9.7-3-17.3-8.8-22.9s-13.3-8.6-22.4-8.6c-9.6,0-17.4,3.1-23.4,9.2s-9,14-9,23.5a32.81,32.81,0,0,0,8.7,23.1c5.8,6.3,14.2,9.5,25.2,9.5a45.89,45.89,0,0,0,27.3-8.6l-6.4-11.3a38.41,38.41,0,0,1-20.1,6.3c-9.8,0-15.8-4.5-18.2-13.3h46.8c.1-2.2.3-4.6.3-6.9m-73.3-29.7H167.2v62.4h16.2Zm-.9-9.9a10.34,10.34,0,0,0,0-14.1,10.47,10.47,0,0,0-14.2,0,10,10,0,0,0,14.2,14.1m-64.6,46.2L95.6,125H76.1l35.2,84.6h13.4L159.3,125H140Z" style="fill:#1e1e1c"/></g></g></g></g><g id="Calque_2-2-2" data-name="Calque 2"><g id="Calque_1-2-2-2" data-name="Calque 1-2"><g id="Calque_2-2-3" data-name="Calque 2-2"><g id="Calque_1-2-2-3" data-name="Calque 1-2-2"><polygon points="28.9 258 28.9 211 0 211 0 264.1 0 284.3 0 287 73.4 287 73.4 258 28.9 258" style="fill:#41ce82"/></g></g></g></g><g id="Calque_2-3" data-name="Calque 2"><g id="Calque_1-2-3" data-name="Calque 1-2"><g id="Calque_2-2-4" data-name="Calque 2-2"><g id="Calque_1-2-2-4" data-name="Calque 1-2-2"><polygon points="789.8 73.5 789.8 102.4 834.2 102.4 834.2 149.5 863.2 149.5 863.2 73.5 789.8 73.5" style="fill:#41ce82"/></g></g></g></g><g id="Calque_2-4" data-name="Calque 2"><g id="Calque_1-2-4" data-name="Calque 1-2"><g id="Calque_2-2-5" data-name="Calque 2-2"><g id="Calque_1-2-2-5" data-name="Calque 1-2-2"><path d="M763.7,278.7a13.31,13.31,0,0,0,7-1.8,11.68,11.68,0,0,0,4.8-4.8l-3.8-2.2a9.19,9.19,0,0,1-8,4.6,8.6,8.6,0,0,1-6.4-2.6,10,10,0,0,1,0-13.3,8.81,8.81,0,0,1,6.6-2.6,9.21,9.21,0,0,1,7.9,4.7l3.8-2.2a12.68,12.68,0,0,0-11.8-6.7,13.63,13.63,0,0,0-10,3.8,13.46,13.46,0,0,0-.3,19.1,13.63,13.63,0,0,0,10.2,4m-19-26.3h-4.6v25.7h4.6Zm-2.2-3.7a3.3,3.3,0,1,0-3.4-3.7v.2a3.24,3.24,0,0,0,3.2,3.3h.2m-9.3-7h-4.6V278h4.6Zm-23.7,32.9a8.6,8.6,0,0,1-6.4-2.6,10.14,10.14,0,0,1,0-13.1,8.84,8.84,0,0,1,12.5-.1h0l.1.1a8.79,8.79,0,0,1,2.4,6.5,9.46,9.46,0,0,1-2.4,6.6,7.88,7.88,0,0,1-6.2,2.6m.7-22.9a10.87,10.87,0,0,0-9.1,4.5V241.5h-4.6V278h4.6v-3.7a10.78,10.78,0,0,0,9.1,4.4,11.58,11.58,0,0,0,9.2-4,14.31,14.31,0,0,0,3.7-9.7,13.19,13.19,0,0,0-3.7-9.6,12.48,12.48,0,0,0-9.2-3.9m-31.7,27.2c6.9,0,11.1-4.2,11.1-11.1V252.2H685v15.3c0,4.3-2.4,6.9-6.5,6.9s-6.5-2.6-6.5-6.9V252.2h-4.7v15.5c0,6.7,4.4,11,11.2,11m-21-13.6a9.87,9.87,0,0,1-2.4,6.7,9,9,0,0,1-12.7.1h0l-.1-.1a10.27,10.27,0,0,1,0-13.2,9,9,0,0,1,12.7-.1h0l.1.1a9.22,9.22,0,0,1,2.4,6.5m-8.3-13.4a11.46,11.46,0,0,0-9.2,4.5v-4h-4.5v36.5h4.6V274.3a11.09,11.09,0,0,0,9.2,4.4,11.72,11.72,0,0,0,9.2-4,14.38,14.38,0,0,0,0-19.2,11.91,11.91,0,0,0-9.2-4M618,273a8.4,8.4,0,0,1-4.6,1.5c-2.8,0-4.2-1.6-4.2-5.2V256.1h9.2v-4h-9.2V243h-4.5v9.2h-4.6v4h4.6V269c0,6.2,2.8,9.7,8.3,9.7a10.56,10.56,0,0,0,6.9-2.2Zm-26.2-7.9a9.87,9.87,0,0,1-2.4,6.7,7.79,7.79,0,0,1-6.4,2.6,8.6,8.6,0,0,1-6.4-2.6,10.27,10.27,0,0,1,0-13.2,8.54,8.54,0,0,1,6.4-2.7,8.33,8.33,0,0,1,6.4,2.7,10,10,0,0,1,2.4,6.5m-.3-9.2a11.32,11.32,0,0,0-9.1-4.4,12.23,12.23,0,0,0-9.2,3.8,12.43,12.43,0,0,0-3.6,9.7,14.17,14.17,0,0,0,3.6,9.8,11.91,11.91,0,0,0,9.2,4,11.22,11.22,0,0,0,9.1-4.3v3.7h4.4V252.1h-4.4Zm-39.6,18.5a8.6,8.6,0,0,1-6.4-2.6,10.14,10.14,0,0,1,0-13.1,8.84,8.84,0,0,1,12.5-.1h0l.1.1a8.79,8.79,0,0,1,2.4,6.5,9.46,9.46,0,0,1-2.4,6.6,7.88,7.88,0,0,1-6.2,2.6m.5-22.7a11.14,11.14,0,0,0-9.1,4.5V241.6h-4.6v36.5h4.6v-3.7a10.78,10.78,0,0,0,9.1,4.4,11.58,11.58,0,0,0,9.2-4,14.31,14.31,0,0,0,3.7-9.7,13.19,13.19,0,0,0-3.7-9.6,11.11,11.11,0,0,0-9.2-3.8m-40,11.3a8.5,8.5,0,0,1,8.3-7.4,7.31,7.31,0,0,1,7.7,7h0v.2h-16Zm20.7,1.6a13.17,13.17,0,0,0-3.5-9.6,12,12,0,0,0-9-3.5,12.66,12.66,0,0,0-9.5,3.8,13.93,13.93,0,0,0-3.6,9.7c0,6.7,4.1,13.6,13.9,13.6a19.54,19.54,0,0,0,11.2-3.5l-2-3.5a15.33,15.33,0,0,1-9,2.9c-5.4,0-8.4-3-9.1-7.4H533a11.83,11.83,0,0,0,.1-2.5M521.5,240l-2.9,8h4l4.5-8Zm-23.7,25.1a9.87,9.87,0,0,1-2.4,6.7,7.79,7.79,0,0,1-6.4,2.6,8.6,8.6,0,0,1-6.4-2.6,10.27,10.27,0,0,1,0-13.2,7.66,7.66,0,0,1,6.5-2.7,8.33,8.33,0,0,1,6.4,2.7,9.42,9.42,0,0,1,2.3,6.5m-.4-9.2a10.73,10.73,0,0,0-9-4.4,11.58,11.58,0,0,0-9.2,4,13.36,13.36,0,0,0-3.6,9.6,13.93,13.93,0,0,0,3.6,9.7,12.33,12.33,0,0,0,9.4,4,10.76,10.76,0,0,0,9-4.3v3.6h4.6V241.5h-4.6ZM447,278.7c6.9,0,11.1-4.2,11.1-11.1V252.2h-4.6v15.3c0,4.3-2.4,6.9-6.5,6.9s-6.5-2.6-6.5-6.9V252.2h-4.6v15.5c0,6.7,4.4,11,11.1,11m-22.1-13.6a9.87,9.87,0,0,1-2.4,6.7,7.91,7.91,0,0,1-6.4,2.6,8.6,8.6,0,0,1-6.4-2.6,10.27,10.27,0,0,1,0-13.2,7.58,7.58,0,0,1,6.4-2.7,8.33,8.33,0,0,1,6.4,2.7,10,10,0,0,1,2.4,6.5m-.3-9.2a10.91,10.91,0,0,0-9.1-4.4,11.58,11.58,0,0,0-9.2,4,13.36,13.36,0,0,0-3.6,9.6,13.93,13.93,0,0,0,3.6,9.7,12.33,12.33,0,0,0,9.4,4,10.76,10.76,0,0,0,9-4.3v3.6h4.6V241.5h-4.6Zm-46.5,22.2V264.3c0-5.6,3-8.4,7.1-8.4a7.46,7.46,0,0,1,2.6.4l.4-4.5a29.09,29.09,0,0,0-3.1-.4,7.85,7.85,0,0,0-7.5,4.5v-3.7h-4.4V278h4.9Zm-22.5.6c6.9,0,11.1-4.2,11.1-11.1V252.2h-4.6v15.3c0,4.3-2.4,6.9-6.5,6.9s-6.5-2.6-6.5-6.9V252.2h-4.6v15.5c0,6.7,4.3,11,11.1,11m-42.1-13.6a10,10,0,0,1-2.5,6.6,8.58,8.58,0,0,1-12.2.3h0l-.3-.3a9.11,9.11,0,0,1-2.5-6.6,9.78,9.78,0,0,1,2.5-6.5,8.57,8.57,0,0,1,12.2-.3h0l.3.3a9.14,9.14,0,0,1,2.5,6.5m4.8-2.1a8.5,8.5,0,0,1,8.3-7.4,7.34,7.34,0,0,1,7.7,7.2v.2Zm20.9,1.6a13.17,13.17,0,0,0-3.5-9.6,12,12,0,0,0-9-3.5,13,13,0,0,0-10.9,5.5,13.63,13.63,0,0,0-19.1-2.9,13.49,13.49,0,0,0-5.5,10.2v.5a13.35,13.35,0,0,0,3.8,9.7,14,14,0,0,0,19.8-.4c.3-.4.8-.8,1.1-1.2,2.4,3.6,6.3,5.5,11.5,5.5a19.33,19.33,0,0,0,11.1-3.6l-2-3.5a15.33,15.33,0,0,1-9,2.9c-5.4,0-8.4-3-9.1-7.4H339a9.47,9.47,0,0,1,.2-2.2m-63.1,14.1a13.31,13.31,0,0,0,7-1.8,11.68,11.68,0,0,0,4.8-4.8l-3.9-2.2a9.08,9.08,0,0,1-8,4.6,8.6,8.6,0,0,1-6.4-2.6,9.86,9.86,0,0,1,.1-13.4,8.81,8.81,0,0,1,6.6-2.6,9.21,9.21,0,0,1,7.9,4.7l3.8-2.2a12.68,12.68,0,0,0-11.8-6.7,13.61,13.61,0,0,0-10.3,23,14.89,14.89,0,0,0,10.2,4m-41.9-.1c6.9,0,11.1-4.2,11.1-11.1V252.1h-4.5v15.3c0,4.3-2.4,6.9-6.5,6.9s-6.5-2.6-6.5-6.9V252.2h-4.6v15.5c-.1,6.7,4.3,11,11,10.9m-24.7-14.3H199.3l5.2-13.5Zm10.6,13.8-14.3-35.6h-2.6l-14.4,35.6h5.3l3.6-9.2h13.5l3.6,9.2Z" style="fill:#1e1e1c"/></g></g></g></g></svg>