<svg id="Calque_1" data-name="Calque 1" xmlns="http://www.w3.org/2000/svg" viewBox="0 0 347.04 153.32"><defs><style>.cls-1{fill:#000091;}.cls-2{fill:#e1000f;}</style></defs><g id="Calque_1-2" data-name="Calque 1"><path class="cls-1" d="M21.56,66.5h-13V2.16H46V13H21.56V28.26H42.33V39.11H21.56Z" transform="translate(-2.02 -2.16)"/><path class="cls-1" d="M67.61,66.5H55.94V20.18H67.61v4.59a18.2,18.2,0,0,1,5.84-4.22,16.1,16.1,0,0,1,6.38-1.29,12,12,0,0,1,2.07.18c.7.13,1.36.28,2,.46V31.39a19,19,0,0,0-2.58-.51,24.44,24.44,0,0,0-2.57-.13,13.34,13.34,0,0,0-6.51,1.61,11.62,11.62,0,0,0-4.59,4.45Z" transform="translate(-2.02 -2.16)"/><path class="cls-1" d="M106.3,67.88q-7.08,0-11.35-3.77A12.79,12.79,0,0,1,90.68,54a11.7,11.7,0,0,1,4-9c2.7-2.45,6.46-4.07,11.31-4.87l14.15-2.39v-1.2a7.38,7.38,0,0,0-2.48-5.79,9.47,9.47,0,0,0-6.53-2.21,12.31,12.31,0,0,0-5.83,1.38,13.56,13.56,0,0,0-4.64,4.14l-8.55-6.53a21.28,21.28,0,0,1,8.22-6.8,25.64,25.64,0,0,1,11.17-2.39q9.38,0,14.84,5t5.47,13.24v30H120.18v-4.5a15.53,15.53,0,0,1-5.94,4.18A19.56,19.56,0,0,1,106.3,67.88Zm-4-14.43a4.56,4.56,0,0,0,1.7,3.81,7.36,7.36,0,0,0,4.69,1.38A13.74,13.74,0,0,0,115.4,57a12.88,12.88,0,0,0,4.78-4.55V45.91l-11,1.84a10.53,10.53,0,0,0-5.19,2,4.59,4.59,0,0,0-1.75,3.7Z" transform="translate(-2.02 -2.16)"/><path class="cls-1" d="M156.85,66.5H145.18V20.18h11.67v3.67a19,19,0,0,1,6.39-4.22,20.05,20.05,0,0,1,7.31-1.29q8.17,0,13.09,5.51t4.92,15.08V66.5H176.79V39.39a10.39,10.39,0,0,0-2.48-7.31,8.64,8.64,0,0,0-6.71-2.71,10.89,10.89,0,0,0-6,1.7,15.44,15.44,0,0,0-4.75,5.19Z" transform="translate(-2.02 -2.16)"/><path class="cls-1" d="M210.62,43.34a13.88,13.88,0,0,0,3.76,10.06A12.84,12.84,0,0,0,224,57.31a13.14,13.14,0,0,0,6-1.38,11.89,11.89,0,0,0,4.45-4l9.1,7a22.78,22.78,0,0,1-8.45,6.94A25.16,25.16,0,0,1,224,68.31q-11.31,0-18.43-7.08t-7.13-17.92q0-10.85,7.13-17.92T224,18.31a25.16,25.16,0,0,1,11.12,2.44,22.91,22.91,0,0,1,8.45,6.93l-9.1,7a11.59,11.59,0,0,0-4.5-3.95,13.57,13.57,0,0,0-6.16-1.38,12.57,12.57,0,0,0-9.47,4A13.94,13.94,0,0,0,210.62,43.34Z" transform="translate(-2.02 -2.16)"/><path class="cls-1" d="M295,59a21.64,21.64,0,0,1-8.6,6.94,27.22,27.22,0,0,1-11.62,2.44q-11.58,0-18.66-7t-7.08-18q0-11,6.57-18t17.24-7q9.46,0,15.39,5.79t5.93,15.07a31.52,31.52,0,0,1-.18,3.36,25.93,25.93,0,0,1-.55,3.17H261q.74,6,4.18,9t9.52,3.08a16,16,0,0,0,6.84-1.47,13.14,13.14,0,0,0,5.1-4ZM272.56,27.9a11.08,11.08,0,0,0-7.4,2.43,12.28,12.28,0,0,0-3.92,6.93h21.41a9.57,9.57,0,0,0-2.94-6.71A9.89,9.89,0,0,0,272.56,27.9Z" transform="translate(-2.02 -2.16)"/><path class="cls-2" d="M20.55,155.47a24.71,24.71,0,0,1-10.31-2.12A23.07,23.07,0,0,1,2,146.92l7.72-7a18.37,18.37,0,0,0,5.1,4.64,11,11,0,0,0,5.56,1.51,6,6,0,0,0,4.18-1.38,4.59,4.59,0,0,0,1.52-3.58A4.13,4.13,0,0,0,24.58,138c-1-.92-3.26-2.06-6.76-3.4a53.13,53.13,0,0,1-6.15-2.67,23.21,23.21,0,0,1-3.5-2.3A12.79,12.79,0,0,1,5,125.26a13.66,13.66,0,0,1-1-5.47,13,13,0,0,1,4.68-10.25,17.41,17.41,0,0,1,11.86-4.09,22.16,22.16,0,0,1,9.6,2.16,18.83,18.83,0,0,1,7.22,5.74l-7.72,6.81a16,16,0,0,0-4.41-4,9.12,9.12,0,0,0-4.6-1.34,6.09,6.09,0,0,0-3.95,1.2,3.93,3.93,0,0,0-1.47,3.22,4,4,0,0,0,1.52,3.08q1.52,1.32,6.66,3.35a50.6,50.6,0,0,1,6.25,2.67,19.47,19.47,0,0,1,3.4,2.29A12.48,12.48,0,0,1,36.25,135a13.32,13.32,0,0,1,1.06,5.43,14,14,0,0,1-4.83,10.93A17.4,17.4,0,0,1,20.55,155.47Z" transform="translate(-2.02 -2.16)"/><path class="cls-2" d="M90.68,146.09a21.64,21.64,0,0,1-8.6,6.94,27.37,27.37,0,0,1-11.62,2.44q-11.58,0-18.66-7t-7.08-18q0-11,6.57-18t17.24-7q9.47,0,15.39,5.79t5.93,15.07a31.52,31.52,0,0,1-.18,3.36,24.17,24.17,0,0,1-.56,3.17H56.67q.73,6,4.18,9T70.36,145a16.05,16.05,0,0,0,6.85-1.47,13.14,13.14,0,0,0,5.1-4ZM68.24,115a11.08,11.08,0,0,0-7.4,2.43,12.22,12.22,0,0,0-3.9,6.94H78.35a9.57,9.57,0,0,0-2.94-6.71A9.91,9.91,0,0,0,68.24,115Z" transform="translate(-2.02 -2.16)"/><path class="cls-2" d="M112.92,153.63H101.24V107.31h11.67v4.59a18.31,18.31,0,0,1,5.83-4.22,15.77,15.77,0,0,1,6.39-1.29,12,12,0,0,1,2.07.18c.7.13,1.36.28,2,.46v11.49a19,19,0,0,0-2.58-.5,20,20,0,0,0-2.57-.14,13.28,13.28,0,0,0-6.53,1.61,11.62,11.62,0,0,0-4.59,4.45Z" transform="translate(-2.02 -2.16)"/><path class="cls-2" d="M148.76,153.63l-16.82-46.32h12.5l12,33.09,11.95-33.09H181l-16.91,46.32Z" transform="translate(-2.02 -2.16)"/><path class="cls-2" d="M201.79,91.59a7.39,7.39,0,0,1-2.2,5.38,7.21,7.21,0,0,1-5.35,2.29,7.63,7.63,0,1,1,0-15.26,7.16,7.16,0,0,1,5.33,2.26A7.42,7.42,0,0,1,201.79,91.59Zm-1.74,62H188.37V107.31h11.68Z" transform="translate(-2.02 -2.16)"/><path class="cls-2" d="M222.84,130.47a13.84,13.84,0,0,0,3.77,10.06,12.81,12.81,0,0,0,9.65,3.91,13.14,13.14,0,0,0,6-1.38,11.89,11.89,0,0,0,4.45-4l9.1,7a22.68,22.68,0,0,1-8.45,6.94,25.16,25.16,0,0,1-11.12,2.47q-11.31,0-18.43-7.08t-7.12-17.92q0-10.84,7.12-17.92t18.43-7.08a25.16,25.16,0,0,1,11.12,2.44,22.75,22.75,0,0,1,8.45,6.93l-9.1,7a11.59,11.59,0,0,0-4.5-4,13.57,13.57,0,0,0-6.16-1.38,12.53,12.53,0,0,0-9.46,3.95A13.94,13.94,0,0,0,222.84,130.47Z" transform="translate(-2.02 -2.16)"/><path class="cls-2" d="M307.24,146.09a21.68,21.68,0,0,1-8.59,6.94A27.41,27.41,0,0,1,287,155.47q-11.58,0-18.66-7t-7.07-18q0-11,6.57-18t17.23-7q9.46,0,15.39,5.79t5.93,15.07a31.52,31.52,0,0,1-.18,3.36,25.93,25.93,0,0,1-.55,3.17H273.24q.74,6,4.19,9t9.51,3.08a16,16,0,0,0,6.84-1.47,13.17,13.17,0,0,0,5.11-4ZM284.81,115a11.11,11.11,0,0,0-7.39,2.43,12.23,12.23,0,0,0-3.91,6.94h21.41a9.57,9.57,0,0,0-2.94-6.71,9.88,9.88,0,0,0-7.2-2.66Z" transform="translate(-2.02 -2.16)"/><path class="cls-2" d="M332.3,155.47A24.53,24.53,0,0,1,322,153.35a22.88,22.88,0,0,1-8.23-6.43l7.72-7a18.71,18.71,0,0,0,5.11,4.64,10.85,10.85,0,0,0,5.56,1.51,6,6,0,0,0,4.18-1.38,4.59,4.59,0,0,0,1.51-3.58A4.12,4.12,0,0,0,336.3,138c-1-.92-3.26-2.06-6.76-3.4a53.28,53.28,0,0,1-6.16-2.67,23.12,23.12,0,0,1-3.49-2.3,12.66,12.66,0,0,1-3.17-4.36,13.85,13.85,0,0,1-1.06-5.47,13.06,13.06,0,0,1,4.69-10.25,17.42,17.42,0,0,1,11.89-4.07,22.16,22.16,0,0,1,9.6,2.16,18.83,18.83,0,0,1,7.22,5.74l-7.72,6.81a16,16,0,0,0-4.41-4,9.12,9.12,0,0,0-4.6-1.34,6.09,6.09,0,0,0-3.95,1.2,3.93,3.93,0,0,0-1.47,3.22,4,4,0,0,0,1.51,3.08q1.51,1.32,6.67,3.35a50.6,50.6,0,0,1,6.25,2.67,19.47,19.47,0,0,1,3.4,2.29A12.48,12.48,0,0,1,348,135a13.35,13.35,0,0,1,1.06,5.43,14,14,0,0,1-4.82,10.93A17.41,17.41,0,0,1,332.3,155.47Z" transform="translate(-2.02 -2.16)"/></g></svg>
