<svg id="Calque_1" data-name="Calque 1" xmlns="http://www.w3.org/2000/svg" viewBox="0 0 49.06 49.06"><defs><style>.cls-1{fill:#fff;stroke:#ccc;stroke-miterlimit:10;stroke-width:1.5px;}.cls-2{fill:#0c6ca8;}</style></defs><title>pratique</title><circle class="cls-1" cx="24.53" cy="24.53" r="23.78"/><path class="cls-2" d="M40.17,25.39,27,14.59a1.8,1.8,0,0,0-1.2-.24,1.83,1.83,0,0,0-.48,1.2v5.28H15.45a1.13,1.13,0,0,0-1.2,1.2v8.64a1.13,1.13,0,0,0,1.2,1.2h9.84v5.28c0,.48.24.72.72,1a.24.24,0,0,0,.24.24.88.88,0,0,0,.72-.24l13.2-10.8a1.82,1.82,0,0,0,.48-1A1.82,1.82,0,0,0,40.17,25.39Z" transform="translate(-1.97 -1.49)"/></svg>